<svg xmlns="http://www.w3.org/2000/svg" xmlns:xlink="http://www.w3.org/1999/xlink" width="1080" zoomAndPan="magnify" viewBox="0 0 810 809.999993" height="1080" preserveAspectRatio="xMidYMid meet" version="1.0"><defs><clipPath id="b5e8e4bf60"><path d="M 0 682 L 810 682 L 810 727.519531 L 0 727.519531 Z M 0 682 " clip-rule="nonzero"/></clipPath><clipPath id="00693779e7"><path d="M 221 82.519531 L 590 82.519531 L 590 363 L 221 363 Z M 221 82.519531 " clip-rule="nonzero"/></clipPath><clipPath id="f49201e2c1"><path d="M 221 82.519531 L 590 82.519531 L 590 107 L 221 107 Z M 221 82.519531 " clip-rule="nonzero"/></clipPath></defs><g clip-path="url(#b5e8e4bf60)"><path fill="#c5eae2" d="M 809.753906 705.0625 C 809.753906 717.441406 628.558594 727.464844 405.019531 727.464844 C 181.476562 727.464844 0.300781 717.441406 0.300781 705.0625 C 0.300781 692.683594 181.496094 682.640625 405.035156 682.640625 C 628.574219 682.640625 809.773438 692.683594 809.773438 705.0625 Z M 809.753906 705.0625 " fill-opacity="1" fill-rule="nonzero"/></g><path fill="#a2ddd0" d="M 736.128906 701.992188 C 736.128906 701.992188 712.171875 666.480469 727.421875 652.871094 C 736.785156 644.519531 741.351562 671.242188 741.351562 671.242188 C 741.351562 671.242188 746.667969 620.261719 763.914062 631.035156 C 772.351562 636.296875 754.625 683.300781 754.625 683.300781 C 754.625 683.300781 767.234375 658.84375 777.1875 665.570312 C 793.257812 676.398438 754.960938 701.636719 754.960938 701.636719 L 736.089844 702.011719 Z M 736.128906 701.992188 " fill-opacity="1" fill-rule="nonzero"/><path fill="#e0fbf0" d="M 745.257812 701.816406 L 757.65625 644.09375 C 757.707031 643.789062 757.53125 643.46875 757.191406 643.378906 C 756.871094 643.328125 756.566406 643.523438 756.496094 643.84375 L 744.046875 701.851562 Z M 745.257812 701.816406 " fill-opacity="1" fill-rule="nonzero"/><path fill="#e0fbf0" d="M 751.839844 701.691406 L 774.652344 673.972656 C 774.867188 673.722656 774.832031 673.347656 774.582031 673.148438 C 774.332031 672.9375 773.957031 672.972656 773.742188 673.222656 L 750.308594 701.707031 Z M 751.839844 701.691406 " fill-opacity="1" fill-rule="nonzero"/><path fill="#e0fbf0" d="M 741.03125 701.902344 L 731.648438 659.613281 C 731.578125 659.289062 731.277344 659.078125 730.9375 659.148438 C 730.597656 659.21875 730.417969 659.523438 730.492188 659.863281 L 739.800781 701.902344 L 741.015625 701.867188 Z M 741.03125 701.902344 " fill-opacity="1" fill-rule="nonzero"/><path fill="#a2ddd0" d="M 74.070312 700.996094 C 74.070312 700.996094 104.746094 644.808594 84.378906 637.671875 C 70.929688 632.945312 66.542969 685.492188 66.542969 685.492188 C 66.542969 685.492188 65.328125 627.253906 47.476562 634.691406 C 33.992188 640.3125 52.007812 682.355469 52.007812 682.355469 C 52.007812 682.355469 32.441406 666.480469 29.976562 676.449219 C 26.054688 692.289062 48.5625 701.261719 48.5625 701.261719 L 74.035156 700.957031 Z M 74.070312 700.996094 " fill-opacity="1" fill-rule="nonzero"/><path fill="#e0fbf0" d="M 67.773438 701.066406 L 82.628906 654.511719 C 82.703125 654.261719 82.578125 653.976562 82.328125 653.902344 C 82.058594 653.832031 81.792969 653.957031 81.703125 654.207031 L 66.757812 701.066406 L 67.789062 701.066406 Z M 67.773438 701.066406 " fill-opacity="1" fill-rule="nonzero"/><path fill="#e0fbf0" d="M 63.902344 701.101562 L 53.253906 650.371094 C 53.199219 650.105469 52.953125 649.925781 52.683594 649.996094 C 52.417969 650.050781 52.253906 650.300781 52.308594 650.566406 L 62.902344 701.121094 L 63.902344 701.121094 Z M 63.902344 701.101562 " fill-opacity="1" fill-rule="nonzero"/><path fill="#e0fbf0" d="M 58.425781 701.171875 L 38.199219 683.761719 C 37.988281 683.585938 37.683594 683.621094 37.503906 683.816406 C 37.328125 684.011719 37.363281 684.335938 37.558594 684.496094 L 56.945312 701.191406 Z M 58.425781 701.171875 " fill-opacity="1" fill-rule="nonzero"/><g clip-path="url(#00693779e7)"><path fill="#c1e5fd" d="M 228.332031 82.519531 L 581.738281 82.519531 C 585.75 82.519531 589.015625 85.765625 589.015625 89.796875 L 589.015625 356.234375 C 589.015625 359.890625 586.054688 362.832031 582.414062 362.832031 L 227.691406 362.832031 C 224.035156 362.832031 221.09375 359.871094 221.09375 356.234375 L 221.09375 89.796875 C 221.09375 85.78125 224.339844 82.519531 228.371094 82.519531 Z M 228.332031 82.519531 " fill-opacity="1" fill-rule="nonzero"/></g><g clip-path="url(#f49201e2c1)"><path fill="#2f627c" d="M 228.332031 82.519531 L 581.738281 82.519531 C 585.75 82.519531 589.015625 85.765625 589.015625 89.796875 L 589.015625 106.457031 L 221.054688 106.457031 L 221.054688 89.796875 C 221.054688 85.78125 224.300781 82.519531 228.332031 82.519531 Z M 228.332031 82.519531 " fill-opacity="1" fill-rule="nonzero"/></g><path fill="#98d4fc" d="M 262.898438 94.503906 C 262.898438 97.359375 265.21875 99.679688 268.074219 99.679688 C 270.925781 99.679688 273.246094 97.359375 273.246094 94.503906 C 273.246094 91.652344 270.925781 89.332031 268.074219 89.332031 C 265.21875 89.332031 262.898438 91.652344 262.898438 94.503906 Z M 262.898438 94.503906 " fill-opacity="1" fill-rule="nonzero"/><path fill="#ffd471" d="M 245.867188 94.488281 C 245.867188 97.339844 248.183594 99.660156 251.039062 99.660156 C 253.894531 99.660156 256.210938 97.339844 256.210938 94.488281 C 256.210938 91.632812 253.894531 89.316406 251.039062 89.316406 C 248.183594 89.316406 245.867188 91.632812 245.867188 94.488281 Z M 245.867188 94.488281 " fill-opacity="1" fill-rule="nonzero"/><path fill="#a2ddd0" d="M 228.832031 94.453125 C 228.832031 97.304688 231.152344 99.625 234.003906 99.625 C 236.859375 99.625 239.179688 97.304688 239.179688 94.453125 C 239.179688 91.597656 236.859375 89.277344 234.003906 89.277344 C 231.152344 89.277344 228.832031 91.597656 228.832031 94.453125 Z M 228.832031 94.453125 " fill-opacity="1" fill-rule="nonzero"/><path fill="#2f627c" d="M 327.234375 249.601562 C 326.734375 249.601562 326.34375 249.210938 326.34375 248.710938 L 326.34375 231.726562 L 293.328125 231.726562 C 292.863281 231.726562 292.472656 231.355469 292.4375 230.90625 L 291.707031 220.582031 C 291.707031 220.382812 291.742188 220.207031 291.828125 220.027344 L 326.308594 165.570312 C 326.46875 165.300781 326.753906 165.160156 327.054688 165.160156 L 343.644531 165.160156 C 344.144531 165.160156 344.535156 165.550781 344.535156 166.050781 L 344.535156 216.710938 L 353.007812 216.710938 C 353.507812 216.710938 353.898438 217.101562 353.898438 217.601562 L 353.898438 230.835938 C 353.898438 231.335938 353.507812 231.726562 353.007812 231.726562 L 344.535156 231.726562 L 344.535156 248.710938 C 344.535156 249.210938 344.144531 249.601562 343.644531 249.601562 Z M 326.34375 216.671875 L 326.34375 191.628906 L 310.574219 216.671875 Z M 326.34375 216.671875 " fill-opacity="1" fill-rule="nonzero"/><path fill="#2f627c" d="M 482.265625 250.742188 C 473.828125 250.742188 466.835938 248.476562 461.453125 244 C 456.027344 239.488281 453.265625 233.441406 453.265625 226.039062 C 453.265625 225.539062 453.65625 225.148438 454.15625 225.148438 L 470.566406 225.148438 C 471.066406 225.148438 471.457031 225.539062 471.457031 226.039062 C 471.457031 228.890625 472.507812 231.15625 474.632812 232.976562 C 476.773438 234.796875 479.484375 235.707031 482.660156 235.707031 C 486.316406 235.707031 489.1875 234.742188 491.21875 232.851562 C 493.269531 230.960938 494.25 228.480469 494.25 225.308594 C 494.25 217.582031 490.078125 213.820312 481.515625 213.820312 L 472.832031 213.820312 C 472.332031 213.820312 471.9375 213.425781 471.9375 212.929688 L 471.9375 200.085938 C 471.9375 199.585938 472.332031 199.191406 472.832031 199.191406 L 481.570312 199.191406 C 485.457031 199.191406 488.347656 198.230469 490.183594 196.339844 C 492.039062 194.414062 492.933594 191.914062 492.933594 188.667969 C 492.933594 185.421875 492.039062 183.246094 490.238281 181.550781 C 488.4375 179.855469 485.886719 179 482.640625 179 C 479.734375 179 477.253906 179.804688 475.308594 181.390625 C 473.402344 182.941406 472.457031 184.921875 472.457031 187.421875 C 472.457031 187.917969 472.0625 188.3125 471.5625 188.3125 L 455.15625 188.3125 C 454.65625 188.3125 454.261719 187.917969 454.261719 187.421875 C 454.261719 182.941406 455.476562 178.875 457.917969 175.308594 C 460.328125 171.757812 463.734375 168.957031 468.050781 166.960938 C 472.332031 164.980469 477.109375 163.980469 482.25 163.980469 C 491.167969 163.980469 498.28125 166.160156 503.382812 170.476562 C 508.539062 174.808594 511.140625 180.875 511.140625 188.453125 C 511.140625 192.414062 509.929688 196.105469 507.503906 199.441406 C 505.507812 202.207031 502.9375 204.457031 499.886719 206.132812 C 503.777344 207.84375 506.789062 210.214844 508.859375 213.214844 C 511.25 216.691406 512.445312 220.828125 512.445312 225.539062 C 512.445312 233.136719 509.625 239.308594 504.078125 243.894531 C 498.566406 248.441406 491.238281 250.742188 482.230469 250.742188 Z M 482.265625 250.742188 " fill-opacity="1" fill-rule="nonzero"/><path fill="#91cfe8" d="M 367.9375 221.6875 C 376.160156 260.5 433.164062 260.445312 440.742188 221.488281 C 441.242188 218.921875 441.527344 216.28125 441.527344 213.570312 C 441.582031 203.0625 437.871094 193.414062 431.664062 185.941406 C 426.886719 180.179688 423.691406 173.292969 422.300781 166.015625 C 421.925781 164.089844 420.605469 162.539062 418.875 161.894531 L 389.410156 161.984375 C 387.679688 162.625 386.34375 164.125 385.988281 166.050781 C 385.613281 168.050781 385.078125 170.191406 384.382812 172.242188 C 384.382812 172.277344 384.347656 172.3125 384.347656 172.347656 C 382.652344 177.324219 380.101562 181.996094 376.730469 186.117188 C 370.648438 193.554688 367.007812 203.0625 367.042969 213.410156 C 367.042969 216.226562 367.347656 218.992188 367.9375 221.667969 Z M 367.9375 221.6875 " fill-opacity="1" fill-rule="nonzero"/><path fill="#4693b9" d="M 418.699219 161.894531 L 418.664062 151.746094 L 418.664062 146.910156 C 418.664062 144.003906 416.324219 141.648438 413.417969 141.542969 C 413.488281 141.542969 413.488281 141.113281 413.488281 141.113281 C 413.488281 135.851562 409.171875 131.570312 403.910156 131.589844 C 398.648438 131.589844 394.371094 135.90625 394.386719 141.148438 L 394.386719 141.597656 L 394.707031 141.597656 C 391.800781 141.703125 389.5 144.074219 389.519531 147 L 389.519531 151.835938 L 389.554688 161.984375 Z M 418.699219 161.894531 " fill-opacity="1" fill-rule="nonzero"/><path fill="#387694" d="M 412.992188 141.148438 C 406.980469 141.027344 400.933594 141.027344 394.921875 141.148438 C 394.296875 141.148438 394.296875 142.132812 394.921875 142.132812 C 400.933594 142.007812 406.960938 142.007812 412.992188 142.132812 C 413.613281 142.132812 413.613281 141.167969 412.992188 141.148438 Z M 412.992188 141.148438 " fill-opacity="1" fill-rule="nonzero"/><path fill="#387694" d="M 418.179688 151.585938 C 408.871094 151.585938 399.542969 151.621094 390.214844 151.710938 C 389.589844 151.710938 389.589844 152.691406 390.214844 152.691406 C 399.523438 152.621094 408.851562 152.566406 418.179688 152.566406 C 418.804688 152.566406 418.804688 151.585938 418.179688 151.585938 Z M 418.179688 151.585938 " fill-opacity="1" fill-rule="nonzero"/><path fill="#2f627c" d="M 409.941406 161.949219 C 411.421875 169.976562 413.042969 177.984375 417.003906 185.226562 C 419.269531 189.382812 421.425781 193.269531 422.765625 197.855469 C 424.101562 202.476562 425.421875 207.128906 426.101562 211.894531 C 426.171875 212.375 426.957031 212.375 426.886719 211.894531 C 425.671875 203.421875 423.300781 194.714844 419.054688 187.261719 C 414.488281 179.25 412.402344 170.9375 410.742188 161.964844 Z M 409.941406 161.949219 " fill-opacity="1" fill-rule="nonzero"/><path fill="#2f627c" d="M 386.113281 219.347656 C 387.324219 219.972656 388.5 220.6875 389.75 221.203125 C 390.125 221.363281 390.464844 221.542969 390.890625 221.507812 C 391.675781 221.453125 392.460938 220.792969 393.085938 220.382812 C 393.40625 220.167969 393.710938 219.882812 394.046875 219.6875 C 395.492188 218.886719 395.117188 219.152344 395.957031 219.5625 C 397.207031 220.167969 398.527344 222.023438 400.078125 221.613281 C 400.898438 221.402344 401.753906 220.652344 402.429688 220.152344 C 402.679688 219.957031 402.894531 219.742188 403.164062 219.5625 C 404.125 218.902344 404.320312 218.9375 405.195312 219.527344 C 406.320312 220.292969 408.316406 222.347656 409.726562 222.097656 C 411.546875 221.792969 412.632812 219.511719 414.292969 219.046875 C 415.898438 218.617188 416.773438 221.773438 418.394531 221.917969 C 419.75 222.023438 421.765625 219.6875 422.675781 218.851562 C 423.050781 218.511719 422.515625 217.941406 422.121094 218.296875 C 421.355469 218.992188 420.570312 219.652344 419.769531 220.277344 C 418.964844 220.902344 418.625 221.167969 417.679688 220.507812 C 417.289062 220.242188 416.914062 219.757812 416.558594 219.4375 C 416.003906 218.9375 415.078125 217.796875 414.238281 217.957031 C 413.757812 218.046875 413.257812 218.726562 412.902344 219.011719 C 412.132812 219.632812 411.117188 220.652344 410.15625 220.992188 C 407.941406 221.722656 406.285156 218.527344 404.394531 218.082031 C 403.289062 217.816406 402.109375 219.402344 401.324219 219.9375 C 400.183594 220.722656 399.328125 220.902344 398.097656 220.0625 C 397.347656 219.546875 396.597656 218.957031 395.796875 218.511719 C 394.496094 217.796875 393.726562 218.9375 392.640625 219.652344 C 391.695312 220.277344 390.945312 220.722656 389.804688 220.332031 C 388.679688 219.957031 387.519531 219.171875 386.484375 218.636719 C 386.039062 218.402344 385.628906 219.082031 386.074219 219.296875 Z M 386.113281 219.347656 " fill-opacity="1" fill-rule="nonzero"/><path fill="#2f627c" d="M 383.828125 212.285156 C 384.398438 207.503906 385.578125 202.8125 386.808594 198.175781 C 388.019531 193.574219 390.089844 189.613281 392.246094 185.421875 C 396.027344 178.109375 397.4375 170.046875 398.722656 161.984375 L 397.917969 161.984375 C 396.472656 171.011719 394.601562 179.375 390.230469 187.492188 C 386.164062 195.074219 384.042969 203.8125 383.027344 212.320312 C 382.972656 212.820312 383.738281 212.804688 383.8125 212.320312 Z M 383.828125 212.285156 " fill-opacity="1" fill-rule="nonzero"/><path fill="#ea3e46" d="M 305.296875 305.984375 L 297.734375 305.984375 L 296.289062 310.300781 L 291.707031 310.300781 L 299.5 289.378906 L 303.496094 289.378906 L 311.324219 310.300781 L 306.742188 310.300781 L 305.277344 305.984375 Z M 298.894531 302.488281 L 304.117188 302.488281 L 301.480469 294.660156 L 298.875 302.488281 Z M 298.894531 302.488281 " fill-opacity="1" fill-rule="nonzero"/><path fill="#ea3e46" d="M 329.410156 303.34375 C 329.25 305.59375 328.410156 307.359375 326.929688 308.660156 C 325.433594 309.964844 323.453125 310.605469 320.992188 310.605469 C 318.316406 310.605469 316.195312 309.714844 314.660156 307.894531 C 313.125 306.09375 312.339844 303.613281 312.339844 300.457031 L 312.339844 299.171875 C 312.339844 297.15625 312.699219 295.390625 313.394531 293.855469 C 314.089844 292.320312 315.125 291.144531 316.445312 290.324219 C 317.746094 289.503906 319.28125 289.09375 321.027344 289.09375 C 323.4375 289.09375 325.378906 289.734375 326.859375 291.039062 C 328.339844 292.339844 329.179688 294.140625 329.429688 296.476562 L 325.113281 296.476562 C 325.003906 295.121094 324.628906 294.160156 323.96875 293.535156 C 323.328125 292.929688 322.328125 292.625 321.011719 292.625 C 319.566406 292.625 318.496094 293.144531 317.78125 294.175781 C 317.066406 295.210938 316.710938 296.816406 316.675781 298.976562 L 316.675781 300.546875 C 316.675781 302.808594 317.015625 304.453125 317.710938 305.503906 C 318.40625 306.554688 319.476562 307.054688 320.957031 307.054688 C 322.277344 307.054688 323.273438 306.753906 323.953125 306.144531 C 324.628906 305.539062 324.988281 304.59375 325.09375 303.328125 L 329.410156 303.328125 Z M 329.410156 303.34375 " fill-opacity="1" fill-rule="nonzero"/><path fill="#ea3e46" d="M 348.65625 303.34375 C 348.496094 305.59375 347.65625 307.359375 346.175781 308.660156 C 344.679688 309.964844 342.699219 310.605469 340.238281 310.605469 C 337.5625 310.605469 335.4375 309.714844 333.90625 307.894531 C 332.371094 306.09375 331.585938 303.613281 331.585938 300.457031 L 331.585938 299.171875 C 331.585938 297.15625 331.941406 295.390625 332.640625 293.855469 C 333.335938 292.320312 334.367188 291.144531 335.6875 290.324219 C 336.992188 289.503906 338.523438 289.09375 340.273438 289.09375 C 342.679688 289.09375 344.625 289.734375 346.105469 291.039062 C 347.585938 292.339844 348.425781 294.140625 348.671875 296.476562 L 344.355469 296.476562 C 344.25 295.121094 343.875 294.160156 343.214844 293.535156 C 342.574219 292.929688 341.574219 292.625 340.253906 292.625 C 338.808594 292.625 337.738281 293.144531 337.027344 294.175781 C 336.3125 295.210938 335.957031 296.816406 335.921875 298.976562 L 335.921875 300.546875 C 335.921875 302.808594 336.257812 304.453125 336.957031 305.503906 C 337.652344 306.554688 338.722656 307.054688 340.203125 307.054688 C 341.519531 307.054688 342.519531 306.753906 343.199219 306.144531 C 343.859375 305.539062 344.234375 304.59375 344.339844 303.328125 L 348.65625 303.328125 Z M 348.65625 303.34375 " fill-opacity="1" fill-rule="nonzero"/><path fill="#ea3e46" d="M 364.085938 301.242188 L 355.808594 301.242188 L 355.808594 306.839844 L 365.527344 306.839844 L 365.527344 310.300781 L 351.507812 310.300781 L 351.507812 289.378906 L 365.511719 289.378906 L 365.511719 292.875 L 355.824219 292.875 L 355.824219 297.871094 L 364.101562 297.871094 L 364.101562 301.242188 Z M 364.085938 301.242188 " fill-opacity="1" fill-rule="nonzero"/><path fill="#ea3e46" d="M 378.90625 304.808594 C 378.90625 304.003906 378.601562 303.363281 378.03125 302.933594 C 377.460938 302.488281 376.425781 302.042969 374.929688 301.542969 C 373.429688 301.042969 372.253906 300.582031 371.378906 300.117188 C 369.007812 298.832031 367.8125 297.101562 367.8125 294.925781 C 367.8125 293.785156 368.132812 292.785156 368.773438 291.894531 C 369.398438 291.003906 370.328125 290.324219 371.523438 289.824219 C 372.714844 289.324219 374.054688 289.074219 375.535156 289.074219 C 377.015625 289.074219 378.351562 289.34375 379.53125 289.878906 C 380.6875 290.429688 381.597656 291.179688 382.257812 292.179688 C 382.917969 293.179688 383.222656 294.285156 383.222656 295.550781 L 378.90625 295.550781 C 378.90625 294.585938 378.601562 293.839844 377.996094 293.320312 C 377.390625 292.785156 376.535156 292.519531 375.445312 292.519531 C 374.359375 292.519531 373.574219 292.730469 372.984375 293.179688 C 372.394531 293.625 372.09375 294.210938 372.09375 294.945312 C 372.09375 295.621094 372.429688 296.191406 373.125 296.65625 C 373.824219 297.121094 374.820312 297.546875 376.160156 297.957031 C 378.621094 298.691406 380.402344 299.601562 381.511719 300.707031 C 382.632812 301.792969 383.1875 303.167969 383.1875 304.789062 C 383.1875 306.59375 382.492188 308.035156 381.117188 309.054688 C 379.742188 310.070312 377.90625 310.605469 375.589844 310.605469 C 373.984375 310.605469 372.519531 310.300781 371.183594 309.714844 C 369.84375 309.125 368.863281 308.320312 368.152344 307.289062 C 367.453125 306.253906 367.097656 305.074219 367.097656 303.71875 L 371.433594 303.71875 C 371.433594 306.039062 372.824219 307.179688 375.570312 307.179688 C 376.605469 307.179688 377.390625 306.964844 377.960938 306.554688 C 378.53125 306.144531 378.835938 305.558594 378.835938 304.808594 Z M 378.90625 304.808594 " fill-opacity="1" fill-rule="nonzero"/><path fill="#ea3e46" d="M 397.007812 304.808594 C 397.007812 304.003906 396.707031 303.363281 396.136719 302.933594 C 395.566406 302.488281 394.53125 302.042969 393.03125 301.542969 C 391.535156 301.042969 390.355469 300.582031 389.484375 300.117188 C 387.109375 298.832031 385.914062 297.101562 385.914062 294.925781 C 385.914062 293.785156 386.238281 292.785156 386.878906 291.894531 C 387.503906 291.003906 388.429688 290.324219 389.625 289.824219 C 390.820312 289.324219 392.15625 289.074219 393.636719 289.074219 C 395.117188 289.074219 396.457031 289.34375 397.632812 289.878906 C 398.792969 290.429688 399.703125 291.179688 400.363281 292.179688 C 401.023438 293.179688 401.324219 294.285156 401.324219 295.550781 L 397.007812 295.550781 C 397.007812 294.585938 396.707031 293.839844 396.101562 293.320312 C 395.492188 292.804688 394.636719 292.519531 393.550781 292.519531 C 392.460938 292.519531 391.675781 292.730469 391.085938 293.179688 C 390.5 293.625 390.195312 294.210938 390.195312 294.945312 C 390.195312 295.621094 390.535156 296.191406 391.230469 296.65625 C 391.925781 297.121094 392.925781 297.546875 394.261719 297.957031 C 396.722656 298.691406 398.507812 299.601562 399.613281 300.707031 C 400.738281 301.792969 401.289062 303.167969 401.289062 304.789062 C 401.289062 306.59375 400.59375 308.035156 399.222656 309.054688 C 397.847656 310.070312 396.011719 310.605469 393.691406 310.605469 C 392.085938 310.605469 390.625 310.300781 389.285156 309.714844 C 387.964844 309.125 386.96875 308.320312 386.253906 307.289062 C 385.558594 306.253906 385.203125 305.074219 385.203125 303.71875 L 389.535156 303.71875 C 389.535156 306.039062 390.925781 307.179688 393.675781 307.179688 C 394.707031 307.179688 395.492188 306.964844 396.082031 306.554688 C 396.671875 306.144531 396.957031 305.558594 396.957031 304.808594 Z M 397.007812 304.808594 " fill-opacity="1" fill-rule="nonzero"/><path fill="#ea3e46" d="M 411.582031 310.300781 L 411.582031 289.378906 L 418.019531 289.378906 C 419.859375 289.378906 421.515625 289.789062 422.941406 290.609375 C 424.40625 291.429688 425.53125 292.609375 426.351562 294.140625 C 427.171875 295.675781 427.5625 297.40625 427.5625 299.351562 L 427.5625 300.3125 C 427.5625 302.257812 427.171875 303.988281 426.351562 305.503906 C 425.546875 307.019531 424.421875 308.199219 422.960938 309.019531 C 421.5 309.855469 419.859375 310.265625 418.039062 310.285156 Z M 415.898438 292.875 L 415.898438 306.839844 L 417.984375 306.839844 C 419.679688 306.839844 420.964844 306.289062 421.855469 305.199219 C 422.746094 304.09375 423.191406 302.523438 423.226562 300.472656 L 423.226562 299.367188 C 423.226562 297.226562 422.78125 295.621094 421.910156 294.535156 C 421.035156 293.445312 419.75 292.894531 418.039062 292.894531 L 415.898438 292.894531 Z M 415.898438 292.875 " fill-opacity="1" fill-rule="nonzero"/><path fill="#ea3e46" d="M 443.292969 301.242188 L 435.019531 301.242188 L 435.019531 306.839844 L 444.738281 306.839844 L 444.738281 310.300781 L 430.71875 310.300781 L 430.71875 289.378906 L 444.722656 289.378906 L 444.722656 292.875 L 435.035156 292.875 L 435.035156 297.871094 L 443.3125 297.871094 L 443.3125 301.242188 Z M 443.292969 301.242188 " fill-opacity="1" fill-rule="nonzero"/><path fill="#ea3e46" d="M 464.289062 310.300781 L 459.972656 310.300781 L 451.585938 296.53125 L 451.585938 310.300781 L 447.273438 310.300781 L 447.273438 289.378906 L 451.585938 289.378906 L 459.988281 303.183594 L 459.988281 289.378906 L 464.289062 289.378906 Z M 464.289062 310.300781 " fill-opacity="1" fill-rule="nonzero"/><path fill="#ea3e46" d="M 468.316406 289.378906 L 472.632812 289.378906 L 472.632812 310.300781 L 468.316406 310.300781 Z M 468.316406 289.378906 " fill-opacity="1" fill-rule="nonzero"/><path fill="#ea3e46" d="M 489.222656 301.242188 L 480.945312 301.242188 L 480.945312 306.839844 L 490.667969 306.839844 L 490.667969 310.300781 L 476.648438 310.300781 L 476.648438 289.378906 L 490.648438 289.378906 L 490.648438 292.875 L 480.964844 292.875 L 480.964844 297.871094 L 489.238281 297.871094 L 489.238281 301.242188 Z M 489.222656 301.242188 " fill-opacity="1" fill-rule="nonzero"/><path fill="#ea3e46" d="M 493.183594 310.300781 L 493.183594 289.378906 L 499.621094 289.378906 C 501.457031 289.378906 503.117188 289.789062 504.542969 290.609375 C 506.003906 291.429688 507.128906 292.609375 507.949219 294.140625 C 508.769531 295.675781 509.164062 297.40625 509.164062 299.351562 L 509.164062 300.3125 C 509.164062 302.257812 508.769531 303.988281 507.949219 305.503906 C 507.148438 307.019531 506.023438 308.199219 504.5625 309.019531 C 503.097656 309.855469 501.457031 310.265625 499.636719 310.285156 L 493.164062 310.285156 Z M 497.496094 292.875 L 497.496094 306.839844 L 499.585938 306.839844 C 501.28125 306.839844 502.5625 306.289062 503.457031 305.199219 C 504.347656 304.09375 504.792969 302.523438 504.828125 300.472656 L 504.828125 299.367188 C 504.828125 297.226562 504.382812 295.621094 503.507812 294.535156 C 502.636719 293.445312 501.351562 292.894531 499.636719 292.894531 L 497.496094 292.894531 Z M 497.496094 292.875 " fill-opacity="1" fill-rule="nonzero"/><path fill="#ea3e46" d="M 514.550781 306.144531 C 515.261719 306.144531 515.816406 306.359375 516.242188 306.769531 C 516.671875 307.179688 516.867188 307.714844 516.867188 308.339844 C 516.867188 308.964844 516.652344 309.480469 516.242188 309.890625 C 515.816406 310.300781 515.261719 310.515625 514.550781 310.515625 C 513.835938 310.515625 513.300781 310.300781 512.871094 309.890625 C 512.445312 309.480469 512.25 308.964844 512.25 308.339844 C 512.25 307.714844 512.460938 307.179688 512.871094 306.769531 C 513.300781 306.359375 513.855469 306.144531 514.550781 306.144531 Z M 516.28125 303.878906 L 512.835938 303.878906 L 512.355469 289.378906 L 516.777344 289.378906 L 516.296875 303.878906 Z M 516.28125 303.878906 " fill-opacity="1" fill-rule="nonzero"/><path fill="#ffa18a" d="M 250.023438 419.789062 C 249.328125 419.074219 246.988281 416.878906 246.132812 418.414062 C 245.957031 418.71875 245.957031 419.09375 246.027344 419.46875 C 245.402344 418.683594 244.546875 418.003906 243.582031 417.789062 C 242.441406 417.523438 241.726562 418.359375 241.90625 419.449219 C 241.726562 419.269531 241.53125 419.128906 241.300781 419.003906 C 240.835938 418.734375 240.285156 418.414062 239.75 418.398438 C 238.605469 418.324219 238.410156 419.59375 238.625 420.464844 C 238.269531 420.25 237.910156 420.089844 237.484375 420.164062 C 237.074219 420.234375 236.769531 420.539062 236.664062 420.949219 C 236.378906 422.070312 237.359375 423.160156 237.964844 423.980469 C 238.125 424.195312 238.269531 424.445312 238.410156 424.65625 C 237.589844 424.925781 236.753906 425.105469 235.894531 425.191406 C 234.203125 425.316406 232.5625 425.226562 230.867188 424.855469 C 229.476562 424.550781 228.15625 424.28125 226.726562 424.480469 C 223.75 424.925781 221.253906 426.886719 218.84375 428.546875 C 212.996094 432.632812 206.964844 436.394531 200.777344 439.871094 L 206.429688 449.167969 C 211.015625 445.582031 215.582031 441.90625 220.539062 438.855469 C 222.945312 437.375 225.496094 436.089844 228.207031 435.269531 C 230.9375 434.449219 233.648438 434.308594 236.484375 434.378906 C 239.070312 434.46875 241.746094 434.609375 244.261719 433.808594 C 246.472656 433.113281 248.292969 431.667969 249.878906 429.992188 C 251.109375 428.6875 253.070312 426.957031 252.964844 424.980469 C 252.859375 423.105469 251.253906 421.109375 250.003906 419.804688 Z M 250.023438 419.789062 " fill-opacity="1" fill-rule="nonzero"/><path fill="#ffa18a" d="M 156.453125 657.507812 L 175.34375 657.507812 C 175.21875 655.347656 175.128906 653.171875 175.128906 650.976562 C 175.164062 643.523438 176.019531 636.046875 176.964844 628.644531 C 177.894531 621.511719 179.355469 614.535156 181.886719 607.8125 C 183.242188 604.226562 184.722656 600.675781 185.542969 596.914062 C 186.167969 594.007812 186.328125 591.0625 186.097656 588.121094 L 159.21875 588.121094 C 159.539062 593.398438 159.84375 598.679688 158.128906 603.796875 C 157.183594 606.546875 156.167969 609.257812 155.472656 612.09375 C 154.8125 614.839844 154.367188 617.640625 154.082031 620.457031 C 152.90625 632.304688 154.671875 644.253906 156.222656 655.972656 C 156.277344 656.472656 156.363281 656.972656 156.4375 657.488281 Z M 156.453125 657.507812 " fill-opacity="1" fill-rule="nonzero"/><path fill="#ffd471" d="M 175.609375 657.507812 C 175.824219 655.632812 176.019531 653.761719 176.199219 651.90625 C 176.199219 651.90625 170.472656 652.53125 154.867188 651.691406 C 154.867188 651.691406 155.097656 654.296875 155.402344 657.523438 Z M 175.609375 657.507812 " fill-opacity="1" fill-rule="nonzero"/><path fill="#091317" d="M 197.816406 695.359375 C 197.351562 692.949219 195.675781 691.308594 193.765625 690.042969 C 190.109375 687.582031 178.695312 684.316406 177.484375 683.226562 C 175.144531 681.140625 174.699219 677.714844 174.824219 674.71875 C 175.039062 668.371094 175.878906 661.984375 176.394531 655.652344 C 176.394531 655.652344 168.351562 657.613281 154.597656 655.382812 C 154.597656 655.382812 155.527344 666.746094 155.992188 672.4375 C 156.222656 675.21875 156.453125 678.003906 156.257812 680.800781 C 156.0625 683.246094 155.542969 685.636719 155.046875 688.027344 C 154.5625 690.417969 154.082031 692.824219 153.992188 695.269531 L 153.992188 696.605469 C 155.507812 698.160156 159.09375 698.015625 160.789062 697.925781 C 165.070312 697.746094 169.171875 697.105469 173.488281 697.375 C 179.035156 697.730469 184.527344 698.621094 190.09375 698.835938 C 192 698.90625 193.820312 698.890625 195.53125 698.621094 C 197.746094 698.050781 197.941406 695.980469 197.796875 695.339844 Z M 197.816406 695.359375 " fill-opacity="1" fill-rule="nonzero"/><path fill="#ffa18a" d="M 124.152344 657.507812 L 143.042969 657.507812 C 142.917969 655.347656 142.808594 653.171875 142.828125 650.976562 C 142.863281 643.523438 143.71875 636.046875 144.664062 628.644531 C 145.59375 621.511719 147.054688 614.535156 149.585938 607.8125 C 150.941406 604.226562 152.421875 600.675781 153.242188 596.914062 C 153.867188 594.007812 154.027344 591.0625 153.796875 588.121094 L 126.933594 588.121094 C 127.257812 593.398438 127.558594 598.679688 125.847656 603.796875 C 124.902344 606.546875 123.886719 609.257812 123.191406 612.09375 C 122.53125 614.839844 122.082031 617.640625 121.796875 620.457031 C 120.621094 632.304688 122.386719 644.253906 123.9375 655.972656 C 124.011719 656.472656 124.082031 656.972656 124.152344 657.507812 Z M 124.152344 657.507812 " fill-opacity="1" fill-rule="nonzero"/><path fill="#ffd471" d="M 143.292969 657.507812 C 143.503906 655.632812 143.703125 653.761719 143.878906 651.90625 C 143.878906 651.90625 138.152344 652.53125 122.546875 651.691406 C 122.546875 651.691406 122.78125 654.296875 123.082031 657.523438 Z M 143.292969 657.507812 " fill-opacity="1" fill-rule="nonzero"/><path fill="#12252e" d="M 165.496094 695.359375 C 165.035156 692.949219 163.355469 691.308594 161.449219 690.042969 C 157.792969 687.582031 146.375 684.316406 145.164062 683.226562 C 142.828125 681.140625 142.382812 677.714844 142.507812 674.71875 C 142.71875 668.371094 143.539062 661.984375 144.074219 655.652344 C 144.074219 655.652344 136.03125 657.613281 122.28125 655.382812 C 122.28125 655.382812 123.226562 666.746094 123.671875 672.4375 C 123.902344 675.21875 124.136719 678.003906 123.921875 680.800781 C 123.742188 683.246094 123.207031 685.636719 122.707031 688.027344 C 122.226562 690.417969 121.746094 692.824219 121.65625 695.269531 L 121.65625 696.605469 C 123.171875 698.160156 126.757812 698.015625 128.453125 697.925781 C 132.714844 697.746094 136.835938 697.105469 141.152344 697.375 C 146.699219 697.730469 152.191406 698.621094 157.757812 698.835938 C 159.664062 698.90625 161.484375 698.890625 163.195312 698.621094 C 165.40625 698.050781 165.585938 695.980469 165.480469 695.339844 Z M 165.496094 695.359375 " fill-opacity="1" fill-rule="nonzero"/><path fill="#ffa18a" d="M 145.859375 409.121094 C 152.210938 408.65625 166.03125 391.550781 165.121094 391.621094 C 159.183594 390 157.078125 390.320312 153.101562 389.605469 C 151.015625 389.234375 149.375 387.554688 149.195312 385.433594 L 148.839844 381.617188 C 153.476562 380.992188 157.382812 376.78125 160.039062 371.644531 C 162.234375 367.417969 164.035156 362.171875 163.875 356.804688 C 163.875 356.804688 163.839844 356.179688 163.839844 355.894531 C 163.054688 342.570312 156.542969 332.511719 144.183594 332.867188 C 133.445312 333.167969 124.917969 344.425781 124.097656 357.730469 C 123.726562 363.976562 127.84375 373.25 129.183594 374.5 L 130.234375 386.914062 C 130.414062 389 129.039062 390.410156 127.183594 391.675781 C 124.777344 393.335938 119.015625 395.332031 115.628906 396.3125 C 115.628906 396.3125 132.160156 410.121094 145.859375 409.121094 L 145.878906 409.121094 Z M 145.859375 409.121094 " fill-opacity="1" fill-rule="nonzero"/><path fill="#98d4fc" d="M 206.449219 436.449219 C 201.953125 436.539062 200.152344 438.339844 197.886719 436.910156 C 195.570312 435.429688 194.015625 433.003906 192.554688 430.757812 C 189.414062 425.851562 187.382812 420.394531 184.367188 415.4375 C 182.941406 413.0625 181.316406 410.832031 179.945312 408.425781 C 178.5 405.945312 177.214844 403.394531 175.699219 400.953125 C 175.21875 399.808594 174.664062 398.703125 173.898438 397.632812 C 169.9375 392.121094 161.089844 389.875 155.367188 389.945312 C 156.007812 394.601562 152.726562 400.84375 145.144531 401.71875 C 136.015625 402.769531 126.738281 401.058594 121.726562 394.210938 C 121.726562 394.210938 110.617188 397.097656 108.242188 401.503906 C 105.316406 406.964844 106.421875 413.5625 108.476562 419.109375 C 109.671875 422.320312 114.753906 435.109375 115.539062 438.515625 C 116.734375 443.671875 117.75 449.058594 120.230469 453.769531 C 119.425781 470.285156 115.609375 486.480469 113.664062 502.890625 C 111.523438 521.085938 109.527344 572.386719 110.417969 588.921875 C 110.417969 588.921875 133.835938 592.382812 145.058594 593.683594 C 156.632812 595.023438 167.957031 593.917969 179.425781 592.277344 C 186.203125 591.3125 192.945312 590.3125 199.722656 589.332031 C 197.78125 571.691406 193.195312 554.550781 188.828125 537.40625 C 184.386719 519.945312 180.640625 502.355469 178.679688 484.414062 C 178.320312 481.167969 177.570312 470.679688 177.359375 468.679688 C 177.054688 463.738281 176.894531 458.78125 176.804688 453.839844 C 176.804688 453.464844 177.644531 446.132812 178.554688 444.261719 C 182.832031 449.648438 188.058594 454.535156 195.070312 455.585938 C 198.617188 456.121094 202.433594 455.515625 205.46875 453.519531 C 209.160156 451.074219 211.65625 446.667969 214.261719 443.28125 C 209.625 442.691406 206.414062 436.429688 206.414062 436.429688 Z M 206.449219 436.449219 " fill-opacity="1" fill-rule="nonzero"/><path fill="#a55852" d="M 164.746094 340.984375 C 163.785156 337.398438 161.449219 334.152344 157.96875 332.867188 C 155.242188 328.601562 149.871094 327.050781 145.074219 326.660156 C 139.652344 326.195312 132.660156 325.375 127.21875 328.996094 C 124.882812 330.546875 122.546875 332.492188 119.140625 338.914062 C 116.609375 343.675781 114.574219 351.613281 115.824219 356.609375 C 116.519531 359.355469 117.679688 362.011719 119.515625 364.171875 C 119.585938 364.261719 119.695312 364.347656 119.78125 364.4375 C 117.054688 364.8125 114.519531 367.042969 113.023438 369.164062 C 111.132812 371.875 109.9375 375.960938 111.257812 379.136719 C 111.972656 380.832031 113.453125 382.117188 115.039062 382.953125 C 116.785156 383.863281 118.535156 383.953125 120.460938 383.667969 C 122.441406 383.363281 128.308594 380.882812 129.59375 379.296875 L 129.199219 374.480469 C 130.003906 372.164062 129.058594 367.167969 128.914062 366.347656 C 129.539062 363.441406 131.179688 360.800781 132.875 358.339844 C 134.085938 356.574219 135.355469 354.878906 137.171875 353.71875 C 138.796875 352.664062 140.617188 351.933594 142.34375 351.113281 C 147.589844 348.597656 153.011719 344.996094 154.707031 339.289062 C 156.488281 341.195312 158.148438 343.195312 159.378906 345.585938 C 161.128906 349.027344 162.875 354.664062 163.875 358.390625 C 163.875 358.390625 164.605469 357.089844 164.675781 356.429688 C 165.175781 351.363281 166.140625 345.996094 164.800781 340.980469 Z M 164.746094 340.984375 " fill-opacity="1" fill-rule="nonzero"/><path fill="#7abde1" d="M 120.78125 453.875 C 122.742188 457.640625 126.328125 460.457031 130.539062 461.242188 C 135.300781 462.132812 140.6875 460.707031 145.144531 459.011719 C 152.941406 456.070312 158.664062 449.46875 164.125 443.421875 C 167.566406 439.585938 170.742188 435.519531 173.308594 431.042969 C 173.433594 430.828125 173.753906 431.007812 173.613281 431.222656 C 169.242188 438.910156 163.054688 445.242188 156.863281 451.484375 C 153.457031 454.890625 149.800781 457.640625 145.234375 459.351562 C 140.847656 461.011719 135.585938 462.382812 130.878906 461.652344 C 126.398438 460.957031 122.53125 458.03125 120.460938 454.054688 C 120.355469 453.839844 120.675781 453.660156 120.78125 453.875 Z M 120.78125 453.875 " fill-opacity="1" fill-rule="nonzero"/><path fill="#7abde1" d="M 120.941406 400.148438 C 125.882812 405.160156 129.113281 411.546875 130.929688 418.308594 C 131.964844 422.125 132.375 426.101562 133.800781 429.8125 C 135.246094 433.558594 137.351562 437.019531 138.636719 440.855469 C 138.707031 441.085938 138.351562 441.175781 138.277344 440.941406 C 137.066406 437.285156 135.085938 433.96875 133.660156 430.417969 C 132.214844 426.851562 131.75 423.089844 130.839844 419.378906 C 129.09375 412.3125 125.828125 405.605469 120.691406 400.398438 C 120.53125 400.238281 120.800781 399.988281 120.941406 400.148438 Z M 120.941406 400.148438 " fill-opacity="1" fill-rule="nonzero"/><path fill="#7abde1" d="M 132.839844 446.703125 C 135.816406 441.105469 142.078125 439.214844 147.359375 436.5 C 153.316406 433.433594 158.539062 429.152344 163.214844 424.371094 C 163.375 424.195312 163.625 424.460938 163.480469 424.621094 C 159.164062 429.0625 154.367188 433.042969 148.964844 436.054688 C 143.433594 439.125 136.371094 440.890625 133.179688 446.863281 C 133.070312 447.078125 132.75 446.902344 132.855469 446.6875 Z M 132.839844 446.703125 " fill-opacity="1" fill-rule="nonzero"/><path fill="#7abde1" d="M 178.195312 443.992188 C 180.210938 439.890625 178.320312 435.394531 176.339844 431.703125 C 176.214844 431.488281 176.539062 431.3125 176.644531 431.507812 C 178.714844 435.34375 180.570312 439.945312 178.5 444.171875 C 178.390625 444.386719 178.089844 444.207031 178.195312 443.992188 Z M 178.195312 443.992188 " fill-opacity="1" fill-rule="nonzero"/><path fill="#7abde1" d="M 161.574219 392.015625 C 164.035156 394.761719 166.246094 397.792969 167.386719 401.363281 C 168.671875 405.359375 169.027344 409.691406 169.671875 413.847656 C 169.707031 414.082031 169.347656 414.167969 169.3125 413.9375 C 168.707031 410.03125 168.351562 406.019531 167.261719 402.199219 C 166.175781 398.367188 163.945312 395.191406 161.324219 392.265625 C 161.179688 392.085938 161.429688 391.835938 161.574219 392.015625 Z M 161.574219 392.015625 " fill-opacity="1" fill-rule="nonzero"/><path fill="#7abde1" d="M 198.351562 437.519531 C 198.351562 437.519531 198.316406 437.484375 198.316406 437.464844 C 198.367188 437.5 198.421875 437.535156 198.476562 437.554688 C 198.207031 437.519531 197.671875 438.160156 197.511719 438.320312 C 197.246094 438.570312 197.011719 438.839844 196.78125 439.125 C 196.28125 439.730469 195.835938 440.390625 195.480469 441.085938 C 194.765625 442.476562 194.320312 443.992188 194.214844 445.5625 C 194.214844 445.796875 193.839844 445.796875 193.839844 445.5625 C 193.964844 443.761719 194.5 441.976562 195.425781 440.425781 C 195.730469 439.910156 198.066406 436.519531 198.671875 437.339844 C 198.796875 437.535156 198.492188 437.714844 198.351562 437.519531 Z M 198.351562 437.519531 " fill-opacity="1" fill-rule="nonzero"/><path fill="#7abde1" d="M 180.621094 591.082031 C 177.394531 567.105469 174.363281 543.117188 171.488281 519.089844 C 170.6875 512.292969 169.867188 505.480469 169.101562 498.664062 C 169.0625 498.433594 169.4375 498.449219 169.472656 498.664062 C 172.238281 522.691406 175.183594 546.699219 178.304688 570.691406 C 179.195312 577.488281 180.085938 584.285156 180.996094 591.082031 C 181.03125 591.3125 180.65625 591.3125 180.621094 591.082031 Z M 180.621094 591.082031 " fill-opacity="1" fill-rule="nonzero"/><path fill="#7abde1" d="M 161.289062 593.488281 C 161.589844 579.96875 161.375 566.429688 160.644531 552.945312 C 160.644531 552.710938 161.003906 552.710938 161.019531 552.945312 C 161.734375 566.445312 161.964844 579.96875 161.644531 593.488281 C 161.644531 593.71875 161.269531 593.71875 161.269531 593.488281 Z M 161.289062 593.488281 " fill-opacity="1" fill-rule="nonzero"/><path fill="#7abde1" d="M 130.894531 590.207031 C 130.839844 566.304688 130.769531 542.367188 130.699219 518.445312 C 130.699219 511.6875 130.664062 504.925781 130.644531 498.164062 C 130.644531 497.933594 131.019531 497.933594 131.019531 498.164062 C 131.074219 522.085938 131.144531 546.003906 131.234375 569.925781 C 131.234375 576.703125 131.269531 583.445312 131.289062 590.207031 C 131.289062 590.4375 130.914062 590.4375 130.914062 590.207031 Z M 130.894531 590.207031 " fill-opacity="1" fill-rule="nonzero"/><path fill="#254d62" d="M 184.617188 426.601562 C 181.476562 426.601562 178.589844 424.90625 177.035156 422.179688 C 175.503906 419.449219 175.554688 416.078125 177.199219 413.402344 L 234.273438 319.703125 C 235.84375 317.097656 238.625 315.527344 241.691406 315.527344 C 244.761719 315.527344 247.523438 317.082031 249.113281 319.703125 L 306.171875 413.382812 C 307.8125 416.042969 307.863281 419.414062 306.332031 422.160156 C 304.796875 424.90625 301.90625 426.585938 298.75 426.585938 Z M 184.617188 426.601562 " fill-opacity="1" fill-rule="nonzero"/><path fill="#ffd471" d="M 184.617188 420.289062 L 298.75 420.289062 C 300.605469 420.289062 301.746094 418.253906 300.765625 416.683594 L 243.707031 322.984375 C 242.78125 321.46875 240.585938 321.46875 239.660156 322.984375 L 182.582031 416.683594 C 181.621094 418.273438 182.761719 420.289062 184.617188 420.289062 Z M 184.617188 420.289062 " fill-opacity="1" fill-rule="nonzero"/><path fill="#254d62" d="M 241.691406 394.707031 C 243.65625 394.707031 245.242188 393.121094 245.242188 391.160156 L 245.242188 351.222656 C 245.242188 349.257812 243.65625 347.671875 241.691406 347.671875 C 239.730469 347.671875 238.144531 349.257812 238.144531 351.222656 L 238.144531 391.160156 C 238.144531 393.121094 239.730469 394.707031 241.691406 394.707031 Z M 241.691406 394.707031 " fill-opacity="1" fill-rule="nonzero"/><path fill="#254d62" d="M 237.785156 405.855469 C 237.785156 408.015625 239.535156 409.761719 241.691406 409.761719 C 243.851562 409.761719 245.597656 408.015625 245.597656 405.855469 C 245.597656 403.699219 243.851562 401.949219 241.691406 401.949219 C 239.535156 401.949219 237.785156 403.699219 237.785156 405.855469 Z M 237.785156 405.855469 " fill-opacity="1" fill-rule="nonzero"/><path fill="#ffa18a" d="M 194.425781 399.808594 C 194.25 399.507812 194 399.3125 193.714844 399.222656 C 193.714844 399.007812 193.714844 398.8125 193.589844 398.597656 C 193.339844 398.1875 192.929688 397.882812 192.449219 397.742188 L 192.304688 397.742188 C 192.410156 397.367188 192.375 396.9375 191.984375 396.707031 C 191.699219 396.546875 191.359375 396.492188 191.039062 396.472656 L 191.003906 396.472656 C 191.199219 395.351562 189.699219 395.171875 188.878906 395.117188 C 184.6875 394.90625 180.320312 396.261719 177.304688 399.257812 C 175.949219 400.59375 174.878906 402.234375 174.253906 404.019531 C 173.46875 406.25 173.789062 408.621094 173.042969 410.816406 C 171.757812 414.492188 164.425781 422.945312 163.390625 424.300781 C 163.390625 424.300781 170.171875 426.710938 173.613281 430.9375 C 174.824219 428.796875 176.054688 426.65625 177.269531 424.496094 C 178.480469 422.355469 179.605469 420.375 181.691406 418.984375 C 184.511719 417.09375 187.328125 415.148438 188.292969 411.691406 C 188.789062 409.886719 188.59375 407.855469 189.539062 406.179688 C 190.433594 404.574219 192.179688 404.003906 193.445312 402.789062 C 194.160156 402.09375 195.015625 400.84375 194.425781 399.808594 L 194.425781 399.773438 Z M 194.425781 399.808594 " fill-opacity="1" fill-rule="nonzero"/><path fill="#29566d" d="M 328.964844 503.320312 L 481.089844 503.320312 L 481.089844 702.972656 L 328.964844 702.972656 Z M 328.964844 503.320312 " fill-opacity="1" fill-rule="nonzero"/><path fill="#4693b9" d="M 324.238281 498.128906 L 485.796875 498.128906 C 488.972656 498.128906 491.558594 500.714844 491.558594 503.890625 L 491.558594 526.972656 C 491.558594 530.148438 488.972656 532.734375 485.796875 532.734375 L 324.21875 532.734375 C 321.046875 532.734375 318.460938 530.148438 318.460938 526.972656 L 318.460938 503.890625 C 318.460938 500.714844 321.046875 498.128906 324.238281 498.128906 Z M 324.238281 498.128906 " fill-opacity="1" fill-rule="nonzero"/><path fill="#98d4fc" d="M 330.300781 512.542969 L 435.304688 512.542969 C 436.585938 512.542969 437.621094 513.578125 437.621094 514.863281 L 437.621094 516.003906 C 437.621094 517.289062 436.585938 518.320312 435.304688 518.320312 L 330.300781 518.320312 C 329.019531 518.320312 327.984375 517.289062 327.984375 516.003906 L 327.984375 514.863281 C 327.984375 513.578125 329.019531 512.542969 330.300781 512.542969 Z M 330.300781 512.542969 " fill-opacity="1" fill-rule="nonzero"/><path fill="#ffd471" d="M 457.3125 515.449219 C 457.3125 517.039062 456.011719 518.339844 454.425781 518.339844 C 452.835938 518.339844 451.535156 517.039062 451.535156 515.449219 C 451.535156 513.863281 452.835938 512.558594 454.425781 512.558594 C 456.011719 512.558594 457.3125 513.863281 457.3125 515.449219 Z M 457.3125 515.449219 " fill-opacity="1" fill-rule="nonzero"/><path fill="#a2ddd0" d="M 469.261719 515.449219 C 469.261719 517.039062 467.960938 518.339844 466.375 518.339844 C 464.785156 518.339844 463.484375 517.039062 463.484375 515.449219 C 463.484375 513.863281 464.785156 512.558594 466.375 512.558594 C 467.960938 512.558594 469.261719 513.863281 469.261719 515.449219 Z M 469.261719 515.449219 " fill-opacity="1" fill-rule="nonzero"/><path fill="#2f627c" d="M 481.214844 515.449219 C 481.214844 517.039062 479.910156 518.339844 478.324219 518.339844 C 476.738281 518.339844 475.433594 517.039062 475.433594 515.449219 C 475.433594 513.863281 476.738281 512.558594 478.324219 512.558594 C 479.910156 512.558594 481.214844 513.863281 481.214844 515.449219 Z M 481.214844 515.449219 " fill-opacity="1" fill-rule="nonzero"/><path fill="#4693b9" d="M 324.238281 537.085938 L 485.816406 537.085938 C 488.988281 537.085938 491.578125 539.671875 491.578125 542.847656 L 491.578125 565.929688 C 491.578125 569.105469 488.988281 571.691406 485.816406 571.691406 L 324.238281 571.691406 C 321.0625 571.691406 318.476562 569.105469 318.476562 565.929688 L 318.476562 542.847656 C 318.476562 539.671875 321.0625 537.085938 324.238281 537.085938 Z M 324.238281 537.085938 " fill-opacity="1" fill-rule="nonzero"/><path fill="#98d4fc" d="M 330.300781 551.515625 L 435.320312 551.515625 C 436.605469 551.515625 437.640625 552.550781 437.640625 553.835938 L 437.640625 554.996094 C 437.640625 556.28125 436.605469 557.3125 435.320312 557.3125 L 330.320312 557.3125 C 329.035156 557.3125 328 556.28125 328 554.996094 L 328 553.835938 C 328 552.570312 329.035156 551.515625 330.320312 551.515625 Z M 330.300781 551.515625 " fill-opacity="1" fill-rule="nonzero"/><path fill="#a2ddd0" d="M 457.3125 554.390625 C 457.3125 555.976562 456.011719 557.277344 454.425781 557.277344 C 452.835938 557.277344 451.535156 555.976562 451.535156 554.390625 C 451.535156 552.800781 452.835938 551.5 454.425781 551.5 C 456.011719 551.5 457.3125 552.800781 457.3125 554.390625 Z M 457.3125 554.390625 " fill-opacity="1" fill-rule="nonzero"/><path fill="#98d4fc" d="M 469.261719 554.390625 C 469.261719 555.976562 467.960938 557.277344 466.375 557.277344 C 464.785156 557.277344 463.484375 555.976562 463.484375 554.390625 C 463.484375 552.800781 464.785156 551.5 466.375 551.5 C 467.960938 551.5 469.261719 552.800781 469.261719 554.390625 Z M 469.261719 554.390625 " fill-opacity="1" fill-rule="nonzero"/><path fill="#ffd471" d="M 481.214844 554.390625 C 481.214844 555.976562 479.910156 557.277344 478.324219 557.277344 C 476.738281 557.277344 475.433594 555.976562 475.433594 554.390625 C 475.433594 552.800781 476.738281 551.5 478.324219 551.5 C 479.910156 551.5 481.214844 552.800781 481.214844 554.390625 Z M 481.214844 554.390625 " fill-opacity="1" fill-rule="nonzero"/><path fill="#4693b9" d="M 324.238281 576.027344 L 485.816406 576.027344 C 488.988281 576.027344 491.578125 578.613281 491.578125 581.789062 L 491.578125 604.867188 C 491.578125 608.042969 488.988281 610.628906 485.816406 610.628906 L 324.238281 610.628906 C 321.0625 610.628906 318.476562 608.042969 318.476562 604.867188 L 318.476562 581.789062 C 318.476562 578.613281 321.0625 576.027344 324.238281 576.027344 Z M 324.238281 576.027344 " fill-opacity="1" fill-rule="nonzero"/><path fill="#98d4fc" d="M 330.320312 590.457031 L 435.320312 590.457031 C 436.605469 590.457031 437.640625 591.492188 437.640625 592.773438 L 437.640625 593.898438 C 437.640625 595.183594 436.605469 596.21875 435.320312 596.21875 L 330.320312 596.21875 C 329.035156 596.21875 328 595.183594 328 593.898438 L 328 592.773438 C 328 591.492188 329.035156 590.457031 330.320312 590.457031 Z M 330.320312 590.457031 " fill-opacity="1" fill-rule="nonzero"/><path fill="#2a817d" d="M 457.3125 593.347656 C 457.3125 594.933594 456.011719 596.234375 454.425781 596.234375 C 452.835938 596.234375 451.535156 594.933594 451.535156 593.347656 C 451.535156 591.757812 452.835938 590.457031 454.425781 590.457031 C 456.011719 590.457031 457.3125 591.757812 457.3125 593.347656 Z M 457.3125 593.347656 " fill-opacity="1" fill-rule="nonzero"/><path fill="#2f627c" d="M 469.261719 593.347656 C 469.261719 594.933594 467.960938 596.234375 466.375 596.234375 C 464.785156 596.234375 463.484375 594.933594 463.484375 593.347656 C 463.484375 591.757812 464.785156 590.457031 466.375 590.457031 C 467.960938 590.457031 469.261719 591.757812 469.261719 593.347656 Z M 469.261719 593.347656 " fill-opacity="1" fill-rule="nonzero"/><path fill="#ffd471" d="M 481.214844 593.347656 C 481.214844 594.933594 479.910156 596.234375 478.324219 596.234375 C 476.738281 596.234375 475.433594 594.933594 475.433594 593.347656 C 475.433594 591.757812 476.738281 590.457031 478.324219 590.457031 C 479.910156 590.457031 481.214844 591.757812 481.214844 593.347656 Z M 481.214844 593.347656 " fill-opacity="1" fill-rule="nonzero"/><path fill="#4693b9" d="M 324.238281 615 L 485.816406 615 C 488.988281 615 491.578125 617.585938 491.578125 620.761719 L 491.578125 643.84375 C 491.578125 647.019531 488.988281 649.605469 485.816406 649.605469 L 324.238281 649.605469 C 321.0625 649.605469 318.476562 647.019531 318.476562 643.84375 L 318.476562 620.742188 C 318.476562 617.570312 321.0625 614.984375 324.238281 614.984375 Z M 324.238281 615 " fill-opacity="1" fill-rule="nonzero"/><path fill="#98d4fc" d="M 330.300781 629.414062 L 435.320312 629.414062 C 436.605469 629.414062 437.640625 630.449219 437.640625 631.730469 L 437.640625 632.875 C 437.640625 634.15625 436.605469 635.191406 435.320312 635.191406 L 330.320312 635.191406 C 329.035156 635.191406 328 634.15625 328 632.875 L 328 631.730469 C 328 630.449219 329.035156 629.414062 330.320312 629.414062 Z M 330.300781 629.414062 " fill-opacity="1" fill-rule="nonzero"/><path fill="#a2ddd0" d="M 457.3125 632.300781 C 457.3125 633.890625 456.011719 635.191406 454.425781 635.191406 C 452.835938 635.191406 451.535156 633.890625 451.535156 632.300781 C 451.535156 630.714844 452.835938 629.414062 454.425781 629.414062 C 456.011719 629.414062 457.3125 630.714844 457.3125 632.300781 Z M 457.3125 632.300781 " fill-opacity="1" fill-rule="nonzero"/><path fill="#ffd471" d="M 469.261719 632.300781 C 469.261719 633.890625 467.960938 635.191406 466.375 635.191406 C 464.785156 635.191406 463.484375 633.890625 463.484375 632.300781 C 463.484375 630.714844 464.785156 629.414062 466.375 629.414062 C 467.960938 629.414062 469.261719 630.714844 469.261719 632.300781 Z M 469.261719 632.300781 " fill-opacity="1" fill-rule="nonzero"/><path fill="#98d4fc" d="M 481.214844 632.300781 C 481.214844 633.890625 479.910156 635.191406 478.324219 635.191406 C 476.738281 635.191406 475.433594 633.890625 475.433594 632.300781 C 475.433594 630.714844 476.738281 629.414062 478.324219 629.414062 C 479.910156 629.414062 481.214844 630.714844 481.214844 632.300781 Z M 481.214844 632.300781 " fill-opacity="1" fill-rule="nonzero"/><path fill="#4693b9" d="M 324.238281 653.941406 L 485.816406 653.941406 C 488.988281 653.941406 491.578125 656.527344 491.578125 659.699219 L 491.578125 682.78125 C 491.578125 685.957031 488.988281 688.542969 485.816406 688.542969 L 324.238281 688.542969 C 321.0625 688.542969 318.476562 685.957031 318.476562 682.78125 L 318.476562 659.699219 C 318.476562 656.527344 321.0625 653.941406 324.238281 653.941406 Z M 324.238281 653.941406 " fill-opacity="1" fill-rule="nonzero"/><path fill="#98d4fc" d="M 330.300781 668.371094 L 435.320312 668.371094 C 436.605469 668.371094 437.640625 669.40625 437.640625 670.6875 L 437.640625 671.832031 C 437.640625 673.113281 436.605469 674.148438 435.320312 674.148438 L 330.320312 674.148438 C 329.035156 674.148438 328 673.113281 328 671.832031 L 328 670.671875 C 328 669.40625 329.035156 668.351562 330.320312 668.351562 Z M 330.300781 668.371094 " fill-opacity="1" fill-rule="nonzero"/><path fill="#2a817d" d="M 457.3125 671.242188 C 457.3125 672.828125 456.011719 674.132812 454.425781 674.132812 C 452.835938 674.132812 451.535156 672.828125 451.535156 671.242188 C 451.535156 669.652344 452.835938 668.351562 454.425781 668.351562 C 456.011719 668.351562 457.3125 669.652344 457.3125 671.242188 Z M 457.3125 671.242188 " fill-opacity="1" fill-rule="nonzero"/><path fill="#98d4fc" d="M 469.261719 671.242188 C 469.261719 672.828125 467.960938 674.132812 466.375 674.132812 C 464.785156 674.132812 463.484375 672.828125 463.484375 671.242188 C 463.484375 669.652344 464.785156 668.351562 466.375 668.351562 C 467.960938 668.351562 469.261719 669.652344 469.261719 671.242188 Z M 469.261719 671.242188 " fill-opacity="1" fill-rule="nonzero"/><path fill="#a2ddd0" d="M 481.214844 671.242188 C 481.214844 672.828125 479.910156 674.132812 478.324219 674.132812 C 476.738281 674.132812 475.433594 672.828125 475.433594 671.242188 C 475.433594 669.652344 476.738281 668.351562 478.324219 668.351562 C 479.910156 668.351562 481.214844 669.652344 481.214844 671.242188 Z M 481.214844 671.242188 " fill-opacity="1" fill-rule="nonzero"/><path fill="#2f627c" d="M 327.714844 697.230469 L 482.355469 697.230469 C 484.261719 697.230469 485.816406 698.78125 485.816406 700.691406 L 485.816406 703.011719 C 485.816406 704.917969 484.261719 706.46875 482.355469 706.46875 L 327.714844 706.46875 C 325.808594 706.46875 324.257812 704.917969 324.257812 703.011719 L 324.257812 700.691406 C 324.257812 698.78125 325.808594 697.230469 327.714844 697.230469 Z M 327.714844 697.230469 " fill-opacity="1" fill-rule="nonzero"/><path fill="#29566d" d="M 589.550781 639.527344 C 590.726562 635.121094 593.632812 631.429688 596.59375 628.09375 C 602.765625 621.152344 609.367188 614.589844 616.25 608.347656 L 662.75 608.347656 C 661.304688 612.003906 659.289062 615.445312 656.722656 618.425781 C 654.457031 621.03125 651.761719 623.152344 648.960938 625.148438 C 646.054688 627.21875 643.199219 629.339844 640.507812 631.730469 C 639.828125 632.300781 639.1875 632.925781 638.527344 633.535156 C 645.414062 635.941406 653.152344 642.613281 659.769531 645.839844 L 657.578125 668.296875 C 651.976562 667.585938 621.296875 661.234375 615.949219 659.46875 C 615.949219 659.46875 607.652344 658.648438 603.105469 657.433594 C 599.484375 656.488281 592.707031 653.136719 590.65625 649.855469 C 588.730469 646.785156 588.585938 642.953125 589.515625 639.542969 Z M 589.550781 639.527344 " fill-opacity="1" fill-rule="nonzero"/><path fill="#25716d" d="M 542.230469 581.339844 C 552.363281 582.734375 587.160156 584.390625 591.886719 583.925781 C 591.976562 583.640625 603.640625 545.132812 619.871094 532.519531 C 630.984375 539.671875 626.433594 570.925781 626.433594 570.925781 C 625.113281 574.261719 623.277344 579.523438 621.832031 582.820312 C 620.585938 585.621094 620.015625 586.726562 617.390625 588.332031 C 614.574219 590.027344 611.398438 590.902344 608.261719 591.667969 C 604.730469 592.542969 601.285156 593.453125 597.933594 594.878906 C 594.578125 596.289062 591.28125 597.804688 587.875 599.125 C 584.484375 600.425781 578.632812 601.945312 575.011719 602.265625 C 571.445312 602.550781 539.339844 595.683594 539.339844 595.378906 C 539.339844 591.167969 542.25 581.324219 542.25 581.324219 L 542.25 581.359375 Z M 542.230469 581.339844 " fill-opacity="1" fill-rule="nonzero"/><path fill="#bf7968" d="M 542.75 577.023438 C 543.65625 576.8125 544.15625 576.6875 545.386719 576.167969 C 546.28125 575.792969 549.4375 574.4375 550.238281 574.402344 C 550.792969 574.402344 551.46875 574.5625 551.667969 575.132812 C 551.878906 575.722656 551.488281 576.347656 551.113281 576.773438 C 550.558594 577.398438 549.863281 577.84375 549.117188 578.203125 C 548.542969 578.46875 545.957031 580.183594 543.855469 581.554688 C 546.511719 585.570312 551.132812 589.636719 542.445312 586.050781 C 541.925781 587.011719 548.296875 588.53125 546.492188 591.847656 C 546.617188 592.703125 547.011719 594.773438 543.90625 594.503906 C 546.226562 599.089844 528.871094 594.113281 534.027344 585.371094 C 536.683594 582.199219 533.507812 580.46875 542.75 576.988281 Z M 542.75 577.023438 " fill-opacity="1" fill-rule="nonzero"/><path fill="#ffd471" d="M 572.710938 662.824219 L 557.160156 561.382812 C 556.804688 559.082031 554.75 557.386719 552.34375 557.386719 L 538.769531 557.421875 C 536.398438 557.421875 534.382812 559.097656 534.007812 561.34375 L 516.957031 662.984375 L 572.710938 662.785156 Z M 572.710938 662.824219 " fill-opacity="1" fill-rule="nonzero"/><path fill="#ffd471" d="M 588.125 671.257812 L 501.617188 671.5625 C 500.992188 671.5625 500.476562 671.0625 500.476562 670.421875 L 500.476562 664.214844 C 500.441406 663.589844 500.957031 663.070312 501.582031 663.070312 L 588.085938 662.769531 C 588.710938 662.769531 589.230469 663.269531 589.230469 663.910156 L 589.230469 670.117188 C 589.230469 670.742188 588.746094 671.257812 588.125 671.257812 Z M 588.125 671.257812 " fill-opacity="1" fill-rule="nonzero"/><path fill="#fff6e3" d="M 562.796875 598.214844 L 527.820312 598.324219 L 529.140625 590.402344 L 561.582031 590.296875 Z M 562.796875 598.214844 " fill-opacity="1" fill-rule="nonzero"/><path fill="#fff6e3" d="M 560.191406 581.234375 L 530.671875 581.324219 L 531.992188 573.402344 L 558.980469 573.3125 Z M 560.191406 581.234375 " fill-opacity="1" fill-rule="nonzero"/><path fill="#ffbc33" d="M 517.226562 663.269531 C 523.449219 663.269531 529.65625 663.234375 535.863281 663.214844 C 545.761719 663.179688 555.679688 663.144531 565.597656 663.109375 C 567.878906 663.109375 570.144531 663.109375 572.425781 663.070312 C 572.75 663.070312 572.75 662.574219 572.425781 662.574219 C 566.21875 662.574219 559.996094 662.609375 553.789062 662.625 C 543.890625 662.660156 533.972656 662.679688 524.054688 662.734375 C 521.789062 662.734375 519.507812 662.734375 517.226562 662.769531 C 516.902344 662.769531 516.902344 663.285156 517.226562 663.285156 Z M 517.226562 663.269531 " fill-opacity="1" fill-rule="nonzero"/><path fill="#bf7968" d="M 548.207031 616.015625 C 539.949219 624.792969 543.570312 625.542969 545.746094 624.363281 C 545.191406 627.378906 547.617188 626.933594 548.4375 625.632812 C 556.480469 624.3125 560.011719 611.503906 567.753906 613.914062 C 567.753906 613.914062 566.183594 609.507812 565.292969 602.265625 C 541.125 602.726562 543.730469 611.199219 550.683594 608.382812 C 540.964844 618.265625 542.070312 616.5 540.929688 618.070312 C 539.699219 625.988281 548.097656 615.730469 548.207031 616 Z M 548.207031 616.015625 " fill-opacity="1" fill-rule="nonzero"/><path fill="#bf7968" d="M 637.527344 527.953125 C 634.746094 530.09375 626.078125 541.722656 621.210938 538.851562 L 614.679688 508.886719 L 634.53125 504.320312 C 634.53125 504.320312 634.90625 506.226562 635.636719 509.027344 C 636.796875 513.363281 640.488281 517.179688 643.539062 521.710938 C 643.84375 522.175781 637.992188 527.613281 637.527344 527.953125 Z M 637.527344 527.953125 " fill-opacity="1" fill-rule="nonzero"/><path fill="#bf7968" d="M 634.53125 504.300781 C 628.683594 506.371094 621.351562 489.015625 610.453125 482.808594 C 577.296875 476.761719 601.25 555.261719 634.53125 504.300781 Z M 634.53125 504.300781 " fill-opacity="1" fill-rule="nonzero"/><path fill="#12252e" d="M 593.757812 490.566406 C 592.152344 489.835938 590.246094 489.835938 588.925781 488.535156 C 587.875 487.515625 587.375 486.089844 587.125 484.699219 C 586.394531 480.683594 585.535156 477.1875 586.945312 473.460938 C 589.050781 467.929688 595.078125 464.917969 598.039062 464.363281 C 604.640625 463.097656 614.128906 462.292969 622.226562 465.09375 C 624.367188 465.828125 625.632812 467.859375 627.683594 468.75 C 640.898438 474.511719 634.730469 488.925781 635.351562 491.851562 C 636.40625 496.863281 639.367188 502.730469 637.652344 507.621094 C 636.796875 510.0625 632.390625 511.898438 629.644531 512.148438 C 628.023438 512.292969 626.96875 511.917969 626.148438 511.132812 C 625.953125 510.617188 625.9375 510.082031 626.273438 509.582031 C 617.765625 496.757812 632.355469 502.695312 607.511719 491.101562 C 605.210938 489.605469 600.125 490.941406 595.792969 489.800781 C 595.863281 490.175781 595.328125 490.761719 593.902344 490.585938 C 593.867188 490.585938 593.867188 490.550781 593.8125 490.53125 L 593.777344 490.53125 Z M 593.757812 490.566406 " fill-opacity="1" fill-rule="nonzero"/><path fill="#bf7968" d="M 624.207031 495.167969 C 624.417969 497.433594 623.5625 499.359375 621.261719 499.628906 C 619.195312 499.84375 617.214844 498.574219 616.75 496.328125 C 616.285156 494.082031 617.550781 491.992188 619.566406 491.53125 C 623.222656 490.710938 624.007812 492.992188 624.207031 495.167969 Z M 624.207031 495.167969 " fill-opacity="1" fill-rule="nonzero"/><path fill="#2a817d" d="M 563.957031 601.550781 C 571.519531 598.160156 578.722656 596.769531 586.089844 594.378906 C 589.890625 593.167969 610.277344 583.804688 612.273438 583.214844 C 612.273438 583.179688 612.308594 583.160156 612.328125 583.089844 C 611.808594 581.269531 611.667969 579.503906 611.59375 577.433594 C 611.507812 574.847656 612.96875 561.878906 613.824219 557.402344 C 614.734375 552.570312 615.609375 547.734375 616.714844 542.972656 C 617.535156 539.371094 618.605469 535.890625 619.90625 532.554688 C 620.191406 533.894531 620.441406 535.125 620.710938 536.300781 C 622.9375 530.664062 630.644531 524.867188 636.621094 522.03125 C 644.269531 518.394531 650.925781 518.839844 657.84375 523.246094 C 665.191406 527.917969 669.632812 533.644531 673.433594 541.386719 C 682.941406 560.703125 686.097656 565.539062 694.410156 584.660156 C 698.546875 594.167969 702.613281 608.132812 699.0625 620.351562 C 698.9375 620.246094 698.6875 620.101562 698.6875 620.101562 C 681.996094 609.453125 662.195312 607.902344 643.648438 611.363281 C 637.976562 612.414062 626.308594 615.109375 626.308594 615.109375 C 624.582031 611.199219 622.796875 607.277344 621.011719 603.371094 C 618.695312 603.835938 616.429688 604.332031 614.144531 605.082031 C 610.6875 606.222656 607.277344 607.472656 603.785156 608.488281 C 600.289062 609.507812 596.753906 610.398438 593.207031 611.148438 C 586.269531 612.628906 579.222656 613.554688 572.125 613.964844 C 570.089844 614.089844 563.832031 614.644531 563.832031 614.644531 C 565.953125 607.367188 563.722656 601.496094 563.972656 601.585938 Z M 563.957031 601.550781 " fill-opacity="1" fill-rule="nonzero"/><path fill="#2f627c" d="M 632.230469 631.429688 C 632.75 640.097656 629.839844 649.050781 629.734375 657.703125 L 607.386719 657.703125 C 606.621094 654.351562 600.039062 626.113281 599.628906 620.511719 C 599.628906 620.511719 597.21875 612.539062 596.578125 607.867188 C 596.078125 604.136719 596.578125 596.609375 598.808594 593.453125 C 600.894531 590.511719 604.390625 588.90625 607.902344 588.441406 C 612.414062 587.851562 616.945312 589.117188 621.15625 590.582031 C 630.375 593.773438 639.417969 597.574219 648.230469 601.78125 C 648.570312 601.871094 648.890625 601.945312 649.230469 602.050781 C 653.367188 603.316406 657.113281 605.441406 661.144531 606.972656 C 665.140625 608.507812 669.347656 609.382812 673.539062 610.292969 C 677.765625 611.199219 681.957031 612.21875 686.007812 613.75 C 690.429688 615.394531 694.640625 617.515625 698.617188 620.046875 C 693.980469 631.285156 684.257812 640.347656 672.34375 643.183594 C 666.03125 644.683594 659.289062 644.484375 653.117188 642.433594 C 649.835938 641.328125 646.855469 639.652344 643.949219 637.832031 C 640.898438 635.941406 637.851562 634.121094 634.65625 632.550781 C 633.855469 632.179688 633.050781 631.785156 632.230469 631.429688 L 632.195312 631.445312 Z M 632.230469 631.429688 " fill-opacity="1" fill-rule="nonzero"/><path fill="#12252e" d="M 579.828125 702.367188 C 580.363281 699.550781 582.34375 697.640625 584.589844 696.160156 C 588.890625 693.253906 602.285156 689.4375 603.710938 688.167969 C 606.441406 685.707031 606.957031 681.710938 606.851562 678.199219 C 606.582031 670.742188 605.636719 663.25 604.996094 655.832031 C 604.996094 655.832031 614.429688 658.132812 630.574219 655.527344 C 630.574219 655.527344 629.484375 668.871094 628.933594 675.539062 C 628.664062 678.785156 628.378906 682.070312 628.628906 685.351562 C 628.84375 688.222656 629.46875 691.042969 630.039062 693.824219 C 630.609375 696.640625 631.179688 699.441406 631.25 702.3125 C 631.25 702.832031 631.25 703.882812 631.25 703.882812 C 629.46875 705.6875 625.257812 705.542969 623.277344 705.453125 C 618.265625 705.238281 613.433594 704.472656 608.367188 704.792969 C 601.855469 705.222656 595.417969 706.273438 588.890625 706.523438 C 586.660156 706.59375 584.519531 706.558594 582.503906 706.257812 C 579.902344 705.578125 579.6875 703.1875 579.828125 702.402344 Z M 579.828125 702.367188 " fill-opacity="1" fill-rule="nonzero"/><path fill="#12252e" d="M 693.320312 704.417969 C 690.664062 703.277344 689.234375 700.921875 688.273438 698.425781 C 686.382812 693.609375 685.578125 679.695312 684.632812 678.019531 C 682.832031 674.808594 679.035156 673.4375 675.589844 672.792969 C 668.261719 671.421875 660.734375 670.722656 653.351562 669.726562 C 653.351562 669.726562 657.648438 661.019531 658.613281 644.683594 C 658.613281 644.683594 671.398438 648.660156 677.785156 650.640625 C 680.90625 651.601562 684.027344 652.621094 687.273438 653.066406 C 690.109375 653.492188 693 653.511719 695.871094 653.546875 C 698.726562 653.582031 701.613281 653.671875 704.414062 654.1875 C 704.914062 654.296875 705.949219 654.527344 705.949219 654.527344 C 707.339844 656.667969 706.25 660.734375 705.734375 662.660156 C 704.433594 667.496094 702.632812 672.042969 701.847656 677.074219 C 700.847656 683.515625 700.453125 690.042969 699.277344 696.464844 C 698.886719 698.691406 698.386719 700.746094 697.636719 702.636719 C 696.425781 705.042969 694.015625 704.722656 693.320312 704.417969 L 693.300781 704.382812 Z M 693.320312 704.417969 " fill-opacity="1" fill-rule="nonzero"/><path fill="#a2ddd0" d="M 274.742188 709.183594 C 274.742188 709.183594 240.945312 645.628906 268.394531 646.304688 C 279.683594 646.589844 289.421875 697.105469 289.421875 697.105469 C 289.421875 697.105469 287.210938 650.996094 309.789062 658.238281 C 322.007812 662.144531 303.511719 697.105469 303.511719 697.105469 C 303.511719 697.105469 320.242188 674.523438 329.660156 680.945312 C 345.015625 691.378906 316.835938 709.359375 316.835938 709.359375 L 274.707031 709.183594 Z M 274.742188 709.183594 " fill-opacity="1" fill-rule="nonzero"/><path fill="#a2ddd0" d="M 259.921875 709.128906 C 259.921875 709.128906 253.964844 675.488281 240.871094 676.058594 C 231.507812 676.484375 239.960938 699.246094 247.898438 709.09375 C 247.898438 709.09375 259.566406 709.09375 259.921875 709.128906 Z M 259.921875 709.128906 " fill-opacity="1" fill-rule="nonzero"/><path fill="#e0fbf0" d="M 282.929688 709.21875 L 268.839844 659.414062 C 268.75 659.078125 268.394531 658.878906 268.074219 658.96875 C 267.734375 659.058594 267.539062 659.414062 267.625 659.753906 L 281.609375 709.21875 Z M 282.929688 709.21875 " fill-opacity="1" fill-rule="nonzero"/><path fill="#e0fbf0" d="M 294.613281 709.269531 L 304.367188 668.976562 C 304.441406 668.65625 304.242188 668.296875 303.90625 668.210938 C 303.566406 668.136719 303.226562 668.335938 303.136719 668.671875 L 293.328125 709.269531 L 294.628906 709.269531 Z M 294.613281 709.269531 " fill-opacity="1" fill-rule="nonzero"/><path fill="#e0fbf0" d="M 253.730469 709.109375 L 244.726562 686.636719 C 244.601562 686.3125 244.226562 686.152344 243.921875 686.277344 C 243.601562 686.402344 243.441406 686.777344 243.566406 687.097656 L 252.375 709.109375 Z M 253.730469 709.109375 " fill-opacity="1" fill-rule="nonzero"/><path fill="#e0fbf0" d="M 304.957031 709.34375 L 322.6875 689.347656 C 322.917969 689.078125 322.902344 688.703125 322.632812 688.453125 C 322.367188 688.203125 321.972656 688.242188 321.742188 688.507812 L 303.28125 709.34375 Z M 304.957031 709.34375 " fill-opacity="1" fill-rule="nonzero"/><path fill="#2f627c" d="M 406.910156 406.75 C 406.910156 407.785156 406.070312 408.640625 405.019531 408.640625 C 403.964844 408.640625 403.128906 407.800781 403.128906 406.75 L 403.128906 396.226562 C 403.128906 395.171875 403.964844 394.335938 405.019531 394.335938 C 406.070312 394.335938 406.910156 395.171875 406.910156 396.226562 Z M 406.910156 406.75 " fill-opacity="1" fill-rule="nonzero"/><path fill="#2f627c" d="M 405.035156 455.585938 C 403.984375 455.585938 403.144531 456.425781 403.144531 457.476562 L 403.144531 468.003906 C 403.144531 469.054688 403.984375 469.894531 405.035156 469.894531 C 406.089844 469.894531 406.925781 469.054688 406.925781 468.003906 L 406.925781 457.476562 C 406.925781 456.425781 406.089844 455.585938 405.035156 455.585938 Z M 405.035156 455.585938 " fill-opacity="1" fill-rule="nonzero"/><path fill="#2f627c" d="M 405.035156 388.074219 C 408.941406 388.074219 412.097656 384.914062 412.097656 381.007812 C 412.097656 377.101562 408.941406 373.945312 405.035156 373.945312 C 401.128906 373.945312 397.972656 377.101562 397.972656 381.007812 C 397.972656 384.914062 401.128906 388.074219 405.035156 388.074219 Z M 405.035156 388.074219 " fill-opacity="1" fill-rule="nonzero"/><path fill="#2f627c" d="M 405.035156 476.152344 C 401.128906 476.152344 397.972656 479.3125 397.972656 483.21875 C 397.972656 487.125 401.128906 490.28125 405.035156 490.28125 C 408.941406 490.28125 412.097656 487.125 412.097656 483.21875 C 412.097656 479.3125 408.941406 476.152344 405.035156 476.152344 Z M 405.035156 476.152344 " fill-opacity="1" fill-rule="nonzero"/><path fill="#ea3e46" d="M 423.496094 432.113281 C 423.496094 432.726562 423.464844 433.335938 423.40625 433.949219 C 423.347656 434.558594 423.257812 435.164062 423.136719 435.765625 C 423.015625 436.363281 422.867188 436.957031 422.691406 437.546875 C 422.511719 438.132812 422.304688 438.707031 422.070312 439.273438 C 421.835938 439.839844 421.574219 440.394531 421.285156 440.933594 C 420.996094 441.476562 420.683594 442 420.34375 442.507812 C 420.003906 443.019531 419.636719 443.511719 419.25 443.984375 C 418.859375 444.457031 418.449219 444.910156 418.015625 445.34375 C 417.582031 445.777344 417.128906 446.1875 416.65625 446.578125 C 416.183594 446.964844 415.691406 447.332031 415.179688 447.671875 C 414.671875 448.011719 414.144531 448.328125 413.605469 448.617188 C 413.066406 448.90625 412.511719 449.167969 411.945312 449.402344 C 411.378906 449.636719 410.804688 449.839844 410.21875 450.019531 C 409.628906 450.199219 409.039062 450.347656 408.4375 450.464844 C 407.835938 450.585938 407.230469 450.675781 406.621094 450.734375 C 406.011719 450.796875 405.398438 450.824219 404.785156 450.824219 C 404.171875 450.824219 403.5625 450.796875 402.953125 450.734375 C 402.34375 450.675781 401.738281 450.585938 401.136719 450.464844 C 400.535156 450.347656 399.941406 450.199219 399.355469 450.019531 C 398.769531 449.839844 398.191406 449.636719 397.625 449.402344 C 397.058594 449.167969 396.507812 448.90625 395.964844 448.617188 C 395.425781 448.328125 394.902344 448.011719 394.390625 447.671875 C 393.882812 447.332031 393.390625 446.964844 392.917969 446.578125 C 392.441406 446.1875 391.988281 445.777344 391.554688 445.34375 C 391.121094 444.910156 390.710938 444.457031 390.324219 443.984375 C 389.933594 443.511719 389.570312 443.019531 389.230469 442.507812 C 388.886719 442 388.574219 441.476562 388.285156 440.933594 C 387.996094 440.394531 387.734375 439.839844 387.5 439.273438 C 387.265625 438.707031 387.058594 438.132812 386.882812 437.546875 C 386.703125 436.957031 386.554688 436.363281 386.433594 435.765625 C 386.316406 435.164062 386.226562 434.558594 386.167969 433.949219 C 386.105469 433.335938 386.074219 432.726562 386.074219 432.113281 C 386.074219 431.5 386.105469 430.890625 386.164062 430.28125 C 386.226562 429.667969 386.316406 429.0625 386.433594 428.464844 C 386.554688 427.863281 386.703125 427.269531 386.882812 426.683594 C 387.058594 426.09375 387.265625 425.519531 387.5 424.953125 C 387.734375 424.386719 387.996094 423.832031 388.285156 423.292969 C 388.574219 422.753906 388.886719 422.226562 389.230469 421.71875 C 389.570312 421.207031 389.933594 420.71875 390.324219 420.242188 C 390.710938 419.769531 391.121094 419.316406 391.554688 418.882812 C 391.988281 418.449219 392.441406 418.039062 392.917969 417.648438 C 393.390625 417.261719 393.882812 416.894531 394.390625 416.554688 C 394.902344 416.214844 395.425781 415.902344 395.964844 415.613281 C 396.507812 415.324219 397.058594 415.0625 397.625 414.828125 C 398.191406 414.59375 398.769531 414.386719 399.355469 414.207031 C 399.941406 414.03125 400.535156 413.882812 401.136719 413.761719 C 401.738281 413.640625 402.34375 413.550781 402.953125 413.492188 C 403.5625 413.433594 404.171875 413.402344 404.785156 413.402344 C 405.398438 413.402344 406.011719 413.433594 406.621094 413.492188 C 407.230469 413.550781 407.835938 413.640625 408.4375 413.761719 C 409.035156 413.882812 409.628906 414.03125 410.21875 414.207031 C 410.804688 414.386719 411.378906 414.59375 411.945312 414.828125 C 412.511719 415.0625 413.066406 415.324219 413.605469 415.613281 C 414.144531 415.902344 414.671875 416.214844 415.179688 416.554688 C 415.691406 416.894531 416.183594 417.261719 416.65625 417.648438 C 417.128906 418.039062 417.582031 418.449219 418.015625 418.882812 C 418.449219 419.316406 418.859375 419.769531 419.25 420.242188 C 419.636719 420.71875 420.003906 421.207031 420.34375 421.71875 C 420.683594 422.226562 420.996094 422.753906 421.285156 423.292969 C 421.574219 423.832031 421.835938 424.386719 422.070312 424.953125 C 422.304688 425.519531 422.511719 426.09375 422.691406 426.683594 C 422.867188 427.269531 423.015625 427.863281 423.136719 428.464844 C 423.257812 429.0625 423.347656 429.667969 423.40625 430.28125 C 423.464844 430.890625 423.496094 431.5 423.496094 432.113281 Z M 423.496094 432.113281 " fill-opacity="1" fill-rule="nonzero"/><path fill="#fbd8da" d="M 412.007812 443.617188 C 411.761719 443.617188 411.527344 443.511719 411.351562 443.332031 L 404.785156 436.769531 L 398.222656 443.332031 C 398.042969 443.511719 397.8125 443.617188 397.5625 443.617188 C 397.3125 443.617188 397.082031 443.511719 396.902344 443.332031 L 393.566406 439.996094 C 393.390625 439.820312 393.28125 439.585938 393.28125 439.335938 C 393.28125 439.089844 393.390625 438.855469 393.566406 438.679688 L 400.128906 432.113281 L 393.566406 425.550781 C 393.191406 425.175781 393.191406 424.585938 393.566406 424.210938 L 396.902344 420.875 C 397.082031 420.699219 397.3125 420.589844 397.5625 420.589844 C 397.8125 420.589844 398.042969 420.699219 398.222656 420.875 L 404.785156 427.441406 L 411.351562 420.875 C 411.527344 420.699219 411.777344 420.589844 412.007812 420.589844 C 412.242188 420.589844 412.492188 420.679688 412.667969 420.875 L 416.003906 424.210938 C 416.378906 424.585938 416.378906 425.175781 416.003906 425.550781 L 409.441406 432.113281 L 416.003906 438.679688 C 416.378906 439.050781 416.378906 439.640625 416.003906 440.015625 L 412.667969 443.351562 C 412.492188 443.53125 412.257812 443.636719 412.007812 443.636719 Z M 412.007812 443.617188 " fill-opacity="1" fill-rule="nonzero"/></svg>