<svg xmlns="http://www.w3.org/2000/svg" xmlns:xlink="http://www.w3.org/1999/xlink" width="1080" zoomAndPan="magnify" viewBox="0 0 810 809.999993" height="1080" preserveAspectRatio="xMidYMid meet" version="1.0"><defs><clipPath id="fade854263"><path d="M 1.78125 695 L 803.28125 695 L 803.28125 745.910156 L 1.78125 745.910156 Z M 1.78125 695 " clip-rule="nonzero"/></clipPath><clipPath id="64dfff2a4b"><path d="M 202 64.191406 L 679 64.191406 L 679 190 L 202 190 Z M 202 64.191406 " clip-rule="nonzero"/></clipPath></defs><g clip-path="url(#fade854263)"><path fill="#c5eae2" d="M 803.28125 720.597656 C 803.28125 734.582031 623.859375 745.910156 402.53125 745.910156 C 181.207031 745.910156 1.78125 734.582031 1.78125 720.597656 C 1.78125 706.625 181.207031 695.28125 402.53125 695.28125 C 623.859375 695.28125 803.28125 706.625 803.28125 720.597656 " fill-opacity="1" fill-rule="nonzero"/></g><path fill="#a2ddd0" d="M 58.175781 721.355469 C 58.175781 721.355469 91.988281 659.480469 69.546875 651.605469 C 54.71875 646.402344 49.898438 704.277344 49.898438 704.277344 C 49.898438 704.277344 48.578125 640.117188 28.894531 648.332031 C 14.050781 654.523438 33.886719 700.835938 33.886719 700.835938 C 33.886719 700.835938 12.339844 683.355469 9.617188 694.335938 C 5.296875 711.777344 30.097656 721.675781 30.097656 721.675781 L 58.175781 721.355469 " fill-opacity="1" fill-rule="nonzero"/><path fill="#e0fbf0" d="M 51.226562 721.4375 L 67.585938 670.160156 C 67.675781 669.878906 67.519531 669.578125 67.242188 669.492188 C 66.953125 669.402344 66.652344 669.554688 66.566406 669.835938 L 50.089844 721.449219 L 51.226562 721.4375 " fill-opacity="1" fill-rule="nonzero"/><path fill="#e0fbf0" d="M 46.96875 721.488281 L 35.234375 665.589844 C 35.175781 665.296875 34.886719 665.109375 34.601562 665.175781 C 34.3125 665.238281 34.125 665.523438 34.1875 665.808594 L 45.863281 721.492188 L 46.96875 721.488281 " fill-opacity="1" fill-rule="nonzero"/><path fill="#e0fbf0" d="M 40.9375 721.554688 L 18.652344 702.382812 C 18.417969 702.1875 18.082031 702.210938 17.886719 702.4375 C 17.699219 702.664062 17.726562 703.007812 17.949219 703.195312 L 39.308594 721.574219 L 40.9375 721.554688 " fill-opacity="1" fill-rule="nonzero"/><path fill="#a2ddd0" d="M 697.082031 230.4375 C 679.082031 231.789062 658.988281 237.105469 647.699219 253.558594 C 638.542969 266.898438 629.417969 285.949219 644.636719 298.378906 C 662.054688 312.601562 685.03125 314.457031 704.355469 306.613281 C 720.382812 300.101562 732.839844 289.902344 740.226562 281.601562 C 749.164062 271.554688 758.089844 261.515625 767.019531 251.449219 C 767.855469 250.519531 767.484375 248.816406 766.277344 248.5 C 754.058594 245.367188 742.148438 241.304688 730.363281 236.617188 C 719.425781 232.230469 708.785156 229.554688 697.082031 230.4375 " fill-opacity="1" fill-rule="nonzero"/><path fill="#e0fbf0" d="M 766.195312 250.375 C 757.964844 253.179688 749.699219 256.011719 741.152344 257.652344 C 740.453125 257.800781 739.746094 257.902344 739.023438 258.027344 C 741.449219 258.550781 743.863281 259.078125 746.238281 259.722656 C 749.257812 260.539062 752.113281 261.734375 754.628906 263.597656 C 755.457031 264.210938 754.648438 265.621094 753.808594 264.980469 C 751.324219 263.148438 748.519531 261.984375 745.535156 261.207031 C 742.074219 260.316406 738.5625 259.597656 735.09375 258.789062 C 734.921875 258.765625 734.816406 258.691406 734.730469 258.617188 C 728.53125 259.308594 722.304688 259.484375 716.105469 260.230469 C 709.449219 261.019531 702.90625 262.429688 696.453125 264.1875 C 701.441406 269.984375 710.175781 271.472656 717.171875 273.472656 C 721.421875 274.699219 725.667969 275.886719 729.914062 277.113281 C 733.175781 278.054688 736.546875 279.046875 738.449219 282.070312 C 739 282.960938 737.578125 283.75 737.027344 282.875 C 734.78125 279.28125 729.324219 278.628906 725.574219 277.566406 C 721.210938 276.3125 716.847656 275.074219 712.488281 273.816406 C 706.042969 271.972656 699.117188 270.050781 694.773438 264.636719 C 685.367188 267.304688 676.164062 270.671875 667.027344 274.054688 C 664.027344 275.160156 661.011719 276.273438 658.023438 277.453125 C 675.523438 290.5 696.65625 297.679688 718.550781 297.335938 C 719.601562 297.308594 719.5625 298.929688 718.519531 298.949219 C 695.996094 299.320312 674.148438 291.78125 656.269531 278.164062 C 650.203125 280.632812 644.273438 283.4375 638.78125 287.113281 C 637.917969 287.695312 637.128906 286.273438 638 285.691406 C 640.019531 284.339844 642.113281 283.097656 644.234375 281.953125 C 644.246094 281.902344 644.265625 281.851562 644.285156 281.804688 C 648.4375 272.085938 653.777344 262.964844 660.316406 254.644531 C 666.832031 246.351562 674.773438 237.019531 685 233.417969 C 685.980469 233.066406 686.363281 234.652344 685.378906 234.996094 C 679.925781 236.917969 675.5 240.628906 671.4375 244.636719 C 667.804688 248.199219 664.398438 252.015625 661.273438 256.035156 C 655.34375 263.65625 650.410156 271.960938 646.507812 280.769531 C 649.5 279.253906 652.570312 277.914062 655.675781 276.65625 C 655.851562 276.371094 656.136719 276.21875 656.46875 276.332031 C 658.128906 275.667969 659.789062 275.03125 661.46875 274.398438 C 664.898438 273.109375 668.34375 271.832031 671.785156 270.566406 C 675.65625 263.335938 680.300781 256.875 686.050781 251.015625 C 692.4375 244.503906 699 238.15625 705.46875 231.722656 C 706.207031 230.996094 707.339844 232.148438 706.601562 232.875 C 700.339844 239.097656 694.039062 245.242188 687.835938 251.511719 C 682.382812 257.023438 677.878906 263.011719 674.109375 269.722656 C 678.179688 268.261719 682.269531 266.839844 686.390625 265.5 C 688.960938 264.675781 691.574219 263.878906 694.171875 263.148438 C 694.398438 262.839844 694.855469 262.683594 695.253906 262.835938 C 700.253906 261.464844 705.3125 260.28125 710.421875 259.429688 C 710.441406 259.410156 710.453125 259.398438 710.476562 259.378906 C 714.578125 256.011719 716.550781 251.035156 719.667969 246.871094 C 723.019531 242.40625 727.570312 239.972656 732.613281 237.8125 C 733.566406 237.398438 734.371094 238.828125 733.402344 239.226562 C 730.871094 240.304688 728.296875 241.394531 726.019531 242.953125 C 723.703125 244.53125 721.8125 246.550781 720.234375 248.855469 C 717.917969 252.25 716.082031 256.011719 713.246094 259.007812 C 721.210938 257.921875 729.273438 257.914062 737.226562 256.699219 C 747.035156 255.214844 756.457031 251.984375 765.804688 248.8125 C 766.789062 248.460938 767.183594 250.046875 766.195312 250.375 " fill-opacity="1" fill-rule="nonzero"/><path fill="#a2ddd0" d="M 109.578125 207.019531 C 103.347656 215.21875 96.753906 223.007812 89.566406 230.277344 C 88.859375 230.996094 89.316406 232.328125 90.273438 232.640625 C 100.679688 235.910156 111.085938 239.175781 121.488281 242.433594 C 130.105469 245.144531 143.007812 247.035156 156.886719 244.878906 C 173.589844 242.277344 188.808594 231.421875 194.992188 214.253906 C 200.390625 199.25 186.089844 189.828125 174.15625 184.351562 C 159.441406 177.613281 143.246094 182.304688 130.160156 188.859375 C 121.644531 193.113281 115.371094 199.425781 109.578125 207.019531 " fill-opacity="1" fill-rule="nonzero"/><path fill="#e0fbf0" d="M 90.410156 231.546875 C 97.296875 230.074219 104.222656 228.589844 110.863281 226.167969 C 111.40625 225.960938 111.953125 225.75 112.488281 225.542969 C 111.023438 226.914062 109.566406 228.296875 108.175781 229.71875 C 106.429688 231.546875 104.9375 233.574219 103.96875 235.921875 C 103.648438 236.691406 104.800781 237.324219 105.121094 236.535156 C 106.078125 234.21875 107.542969 232.253906 109.296875 230.46875 C 111.335938 228.398438 113.464844 226.4375 115.558594 224.433594 C 115.652344 224.339844 115.707031 224.253906 115.734375 224.152344 C 120.324219 222.054688 124.738281 219.578125 129.347656 217.511719 C 134.316406 215.289062 139.445312 213.53125 144.675781 212.058594 C 143.621094 218.179688 138.175781 222.855469 134.144531 227.175781 C 131.695312 229.78125 129.238281 232.402344 126.792969 235.015625 C 124.917969 237.023438 122.992188 239.132812 122.933594 242.027344 C 122.910156 242.882812 124.230469 242.828125 124.242188 241.996094 C 124.3125 238.546875 127.832031 235.835938 129.996094 233.523438 C 132.515625 230.832031 135.03125 228.152344 137.550781 225.460938 C 141.261719 221.492188 145.261719 217.273438 146.039062 211.6875 C 153.6875 209.628906 161.511719 208.125 169.265625 206.675781 C 171.8125 206.1875 174.375 205.703125 176.941406 205.277344 C 170.210938 221.644531 158.511719 235.457031 143.132812 244.34375 C 142.390625 244.769531 143.097656 245.875 143.824219 245.460938 C 159.660156 236.324219 171.695312 221.972656 178.457031 205.039062 C 183.710938 204.21875 189 203.699219 194.347656 203.984375 C 195.195312 204.007812 195.144531 202.699219 194.304688 202.660156 C 192.332031 202.554688 190.367188 202.566406 188.40625 202.648438 C 188.382812 202.625 188.355469 202.605469 188.3125 202.582031 C 181.375 197.554688 173.847656 193.433594 165.832031 190.367188 C 157.832031 187.3125 148.417969 184.132812 139.808594 185.890625 C 138.988281 186.066406 139.378906 187.316406 140.203125 187.148438 C 144.800781 186.210938 149.421875 186.953125 153.917969 188.042969 C 157.9375 189.015625 161.894531 190.253906 165.75 191.738281 C 173.039062 194.5625 179.953125 198.285156 186.339844 202.785156 C 183.621094 202.980469 180.925781 203.324219 178.242188 203.746094 C 178.011719 203.621094 177.730469 203.632812 177.550781 203.855469 C 176.121094 204.070312 174.707031 204.332031 173.277344 204.589844 C 170.347656 205.121094 167.417969 205.667969 164.5 206.230469 C 158.800781 202.8125 152.859375 200.25 146.402344 198.566406 C 139.265625 196.703125 132.046875 195.023438 124.863281 193.238281 C 124.046875 193.046875 123.734375 194.324219 124.5625 194.535156 C 131.507812 196.246094 138.464844 197.886719 145.390625 199.664062 C 151.480469 201.226562 157.109375 203.511719 162.535156 206.605469 C 159.089844 207.289062 155.65625 208.007812 152.226562 208.796875 C 150.089844 209.292969 147.949219 209.824219 145.828125 210.398438 C 145.550781 210.273438 145.15625 210.363281 144.949219 210.632812 C 140.894531 211.777344 136.890625 213.046875 132.976562 214.585938 C 132.953125 214.574219 132.941406 214.574219 132.914062 214.574219 C 128.664062 213.941406 125.199219 211.308594 121.3125 209.710938 C 117.109375 207.988281 112.929688 208.195312 108.519531 208.804688 C 107.691406 208.921875 107.730469 210.242188 108.5625 210.117188 C 110.773438 209.816406 113.015625 209.503906 115.257812 209.636719 C 117.523438 209.765625 119.683594 210.386719 121.730469 211.324219 C 124.761719 212.714844 127.613281 214.570312 130.832031 215.46875 C 124.835938 218.03125 119.222656 221.390625 113.183594 223.863281 C 105.753906 226.914062 97.851562 228.617188 90.023438 230.289062 C 89.195312 230.46875 89.578125 231.722656 90.410156 231.546875 " fill-opacity="1" fill-rule="nonzero"/><path fill="#a2ddd0" d="M 164.625 167.867188 C 173.796875 169.5625 183.410156 169.546875 192.882812 167.816406 C 200.152344 166.476562 206.878906 165.53125 209.425781 156.742188 C 214.542969 139.128906 210.292969 119.84375 201.425781 106.25 C 199.746094 103.675781 197.855469 101.347656 195.871094 99.144531 C 191.636719 93.378906 186.472656 88.457031 180.46875 84.824219 C 169.300781 78.066406 156.304688 75.671875 143.214844 75.417969 C 136.746094 75.292969 130.234375 75.691406 123.730469 76.273438 C 115.816406 76.980469 106.933594 79.105469 100.460938 73.769531 C 99.019531 72.574219 97.160156 74.246094 97.171875 76.09375 C 97.253906 87.90625 97.375 99.855469 100.160156 111.042969 C 102.847656 121.8125 108.292969 130.832031 115.261719 138.449219 C 128.582031 152.988281 145.5 164.324219 164.625 167.867188 " fill-opacity="1" fill-rule="nonzero"/><path fill="#e0fbf0" d="M 160.183594 165.070312 C 165.050781 160.585938 171.332031 159.039062 177.792969 160.011719 C 181.445312 160.566406 184.8125 160.960938 188.480469 160.242188 C 191.988281 159.554688 195.339844 158.207031 198.632812 156.851562 C 194.355469 151.339844 189.921875 145.933594 184.976562 140.980469 C 184.851562 140.859375 184.71875 140.75 184.585938 140.605469 C 167.125 141.117188 153.097656 154.089844 135.800781 155.617188 C 134.539062 155.730469 134.253906 153.78125 135.519531 153.675781 C 152.25 152.199219 165.910156 139.996094 182.640625 138.738281 C 176.546875 133.125 169.714844 128.476562 162.535156 124.308594 C 160.117188 122.914062 157.691406 121.523438 155.261719 120.152344 C 150.660156 121.003906 146.585938 123.214844 142.265625 124.910156 C 138.496094 126.375 134.664062 127.164062 130.609375 127.234375 C 122.519531 127.332031 114.605469 125.136719 106.507812 125.3125 C 105.25 125.335938 104.964844 123.375 106.234375 123.351562 C 114.167969 123.195312 121.925781 125.222656 129.851562 125.261719 C 134.511719 125.28125 138.78125 124.253906 143.058594 122.457031 C 146.265625 121.105469 149.394531 119.644531 152.726562 118.730469 C 144.59375 114.136719 136.476562 109.546875 128.746094 104.351562 C 117.949219 104.703125 106.320312 104.464844 98.34375 96.113281 C 97.46875 95.191406 99.019531 93.964844 99.886719 94.867188 C 106.691406 102.003906 116.652344 102.660156 125.984375 102.46875 C 123.085938 100.445312 120.242188 98.328125 117.472656 96.0625 C 109.949219 89.914062 103.121094 82.933594 97.523438 74.964844 C 96.796875 73.925781 98.332031 72.6875 99.066406 73.726562 C 107.15625 85.25 117.753906 94.460938 129.285156 102.378906 C 129.777344 102.375 130.109375 102.6875 130.253906 103.050781 C 131.46875 103.882812 132.703125 104.683594 133.941406 105.476562 C 133.898438 102.480469 133.484375 99.53125 132.800781 96.640625 C 131.261719 90.152344 128.425781 83.9375 125.640625 77.914062 C 125.101562 76.757812 126.921875 75.972656 127.449219 77.121094 C 131.777344 86.492188 136.082031 96.226562 135.894531 106.722656 C 136.867188 107.351562 137.851562 107.957031 138.839844 108.558594 C 144.375 111.925781 150.109375 115.042969 155.808594 118.199219 C 155.847656 118.222656 155.878906 118.242188 155.921875 118.269531 C 158.96875 119.953125 162 121.667969 164.988281 123.457031 C 166.824219 115.914062 164.09375 108.34375 161.257812 101.398438 C 158.164062 93.789062 155.609375 86.386719 155.070312 78.132812 C 154.996094 76.875 156.941406 76.585938 157.023438 77.859375 C 157.324219 82.445312 158.117188 86.984375 159.519531 91.386719 C 160.894531 95.65625 162.796875 99.746094 164.386719 103.9375 C 166.910156 110.542969 168.582031 117.546875 166.734375 124.539062 C 173.007812 128.390625 179.027344 132.597656 184.40625 137.695312 C 187.785156 140.890625 190.90625 144.304688 193.90625 147.855469 C 198.324219 139.746094 195.351562 130.148438 192.722656 121.898438 C 189.941406 113.199219 188.324219 104.734375 189.773438 95.605469 C 189.972656 94.347656 191.925781 94.59375 191.730469 95.832031 C 190.949219 100.796875 190.90625 105.808594 191.757812 110.769531 C 192.695312 116.222656 194.738281 121.378906 196.253906 126.664062 C 198.40625 134.175781 199.339844 142.464844 195.246094 149.445312 C 198.527344 153.414062 201.664062 157.527344 204.789062 161.632812 C 205.558594 162.632812 204.015625 163.878906 203.246094 162.871094 C 202.132812 161.402344 201.011719 159.941406 199.882812 158.476562 C 193.867188 160.9375 187.644531 163.308594 181.023438 162.496094 C 177.472656 162.078125 174.136719 161.261719 170.546875 161.9375 C 167.097656 162.582031 163.992188 164.242188 161.425781 166.617188 C 160.484375 167.460938 159.253906 165.933594 160.183594 165.070312 " fill-opacity="1" fill-rule="nonzero"/><path fill="#a2ddd0" d="M 476.621094 708.929688 C 476.621094 708.929688 440.066406 640.199219 469.765625 640.925781 C 481.980469 641.226562 492.527344 695.871094 492.527344 695.871094 C 492.527344 695.871094 490.132812 646.007812 514.5625 653.832031 C 527.773438 658.070312 507.78125 695.871094 507.78125 695.871094 C 507.78125 695.871094 525.875 671.460938 536.0625 678.398438 C 552.664062 689.691406 522.199219 709.109375 522.199219 709.109375 L 476.621094 708.929688 " fill-opacity="1" fill-rule="nonzero"/><path fill="#a2ddd0" d="M 460.585938 708.867188 C 460.585938 708.867188 454.140625 672.484375 439.988281 673.101562 C 429.859375 673.558594 438.996094 698.195312 447.585938 708.835938 C 447.585938 708.835938 460.195312 708.859375 460.585938 708.867188 " fill-opacity="1" fill-rule="nonzero"/><path fill="#e0fbf0" d="M 485.5 708.960938 L 470.273438 655.105469 C 470.164062 654.734375 469.789062 654.527344 469.433594 654.628906 C 469.070312 654.734375 468.863281 655.105469 468.964844 655.472656 L 484.085938 708.953125 L 485.5 708.960938 " fill-opacity="1" fill-rule="nonzero"/><path fill="#e0fbf0" d="M 498.113281 709.015625 L 508.667969 665.425781 C 508.757812 665.070312 508.53125 664.695312 508.167969 664.609375 C 507.796875 664.53125 507.429688 664.746094 507.339844 665.109375 L 496.714844 709.015625 L 498.113281 709.015625 " fill-opacity="1" fill-rule="nonzero"/><path fill="#e0fbf0" d="M 453.910156 708.835938 L 444.167969 684.535156 C 444.027344 684.175781 443.628906 684.019531 443.285156 684.15625 C 442.933594 684.296875 442.765625 684.691406 442.902344 685.039062 L 452.4375 708.835938 L 453.910156 708.835938 " fill-opacity="1" fill-rule="nonzero"/><path fill="#e0fbf0" d="M 509.3125 709.074219 L 528.488281 687.449219 C 528.738281 687.175781 528.71875 686.742188 528.429688 686.492188 C 528.148438 686.238281 527.722656 686.261719 527.464844 686.550781 L 507.496094 709.074219 L 509.3125 709.074219 " fill-opacity="1" fill-rule="nonzero"/><path fill="#a2ddd0" d="M 741.390625 720.835938 C 741.390625 720.835938 713.226562 679.113281 731.179688 663.128906 C 742.175781 653.320312 747.558594 684.710938 747.558594 684.710938 C 747.558594 684.710938 753.800781 624.816406 774.085938 637.457031 C 784.003906 643.636719 763.164062 698.863281 763.164062 698.863281 C 763.164062 698.863281 777.984375 670.140625 789.6875 678.03125 C 808.585938 690.761719 763.566406 720.410156 763.566406 720.410156 L 741.390625 720.835938 " fill-opacity="1" fill-rule="nonzero"/><path fill="#e0fbf0" d="M 752.113281 720.628906 L 766.675781 652.800781 C 766.75 652.429688 766.507812 652.0625 766.132812 651.972656 C 765.757812 651.898438 765.398438 652.136719 765.316406 652.507812 L 750.691406 720.65625 L 752.113281 720.628906 " fill-opacity="1" fill-rule="nonzero"/><path fill="#e0fbf0" d="M 759.863281 720.484375 L 786.671875 687.921875 C 786.914062 687.621094 786.871094 687.1875 786.578125 686.945312 C 786.277344 686.699219 785.84375 686.742188 785.597656 687.039062 L 758.035156 720.515625 L 759.863281 720.484375 " fill-opacity="1" fill-rule="nonzero"/><path fill="#e0fbf0" d="M 747.160156 720.730469 L 736.136719 671.035156 C 736.058594 670.65625 735.695312 670.421875 735.3125 670.503906 C 734.9375 670.585938 734.703125 670.960938 734.785156 671.335938 L 745.742188 720.753906 L 747.160156 720.730469 " fill-opacity="1" fill-rule="nonzero"/><path fill="#29566d" d="M 308.445312 658.714844 C 309.609375 654.351562 312.484375 650.714844 315.425781 647.40625 C 321.53125 640.542969 328.066406 634.050781 334.882812 627.871094 L 380.910156 627.871094 C 379.496094 631.496094 377.492188 634.890625 374.945312 637.839844 C 372.695312 640.417969 370.027344 642.507812 367.261719 644.492188 C 364.378906 646.539062 361.550781 648.644531 358.894531 650.984375 C 358.230469 651.566406 357.578125 652.167969 356.941406 652.777344 C 363.761719 655.148438 371.429688 661.757812 377.96875 664.945312 L 375.796875 687.15625 C 370.242188 686.441406 339.898438 680.171875 334.605469 678.4375 C 334.605469 678.4375 326.402344 677.609375 321.894531 676.425781 C 318.3125 675.488281 311.613281 672.15625 309.582031 668.914062 C 307.671875 665.898438 307.535156 662.097656 308.445312 658.714844 " fill-opacity="1" fill-rule="nonzero"/><path fill="#ffc84b" d="M 261.625 601.160156 C 271.648438 602.554688 306.089844 604.183594 310.773438 603.726562 C 310.859375 603.457031 322.414062 565.363281 338.457031 552.871094 C 349.453125 559.945312 344.957031 590.863281 344.957031 590.863281 C 343.648438 594.167969 341.835938 599.371094 340.398438 602.625 C 339.164062 605.40625 338.601562 606.511719 335.996094 608.089844 C 333.222656 609.769531 330.085938 610.652344 326.953125 611.402344 C 323.460938 612.261719 320.054688 613.160156 316.726562 614.574219 C 313.410156 615.984375 310.148438 617.480469 306.785156 618.777344 C 303.429688 620.078125 297.640625 621.582031 294.054688 621.875 C 290.527344 622.15625 258.746094 615.378906 258.746094 615.070312 C 258.746094 610.902344 261.625 601.160156 261.625 601.160156 " fill-opacity="1" fill-rule="nonzero"/><path fill="#2a817d" d="M 267.472656 662.546875 L 283.628906 659.71875 L 265.78125 558.027344 L 249.632812 560.855469 L 267.472656 662.546875 " fill-opacity="1" fill-rule="nonzero"/><path fill="#2a817d" d="M 245.136719 523.007812 L 249.089844 545.539062 L 261.074219 543.429688 L 257.117188 520.910156 C 265.859375 522.011719 273.234375 528.671875 274.835938 537.800781 C 276.804688 549.011719 269.308594 559.6875 258.09375 561.660156 C 246.878906 563.628906 236.195312 556.132812 234.230469 544.917969 C 232.628906 535.796875 237.296875 527.027344 245.136719 523.007812 " fill-opacity="1" fill-rule="nonzero"/><path fill="#2a817d" d="M 274.667969 691.292969 L 270.71875 668.769531 L 282.695312 666.667969 L 286.648438 689.191406 C 294.488281 685.183594 299.15625 676.414062 297.5625 667.285156 C 295.59375 656.074219 284.90625 648.582031 273.699219 650.546875 C 262.484375 652.511719 254.980469 663.199219 256.949219 674.40625 C 258.550781 683.527344 265.933594 690.191406 274.667969 691.292969 " fill-opacity="1" fill-rule="nonzero"/><path fill="#a2ddd0" d="M 273.179688 647.640625 C 274.363281 647.4375 275.144531 646.316406 274.9375 645.136719 L 261.449219 568.277344 C 261.25 567.097656 260.121094 566.308594 258.953125 566.515625 C 257.773438 566.722656 256.984375 567.84375 257.199219 569.019531 L 270.679688 645.890625 C 270.886719 647.066406 272.007812 647.84375 273.179688 647.640625 " fill-opacity="1" fill-rule="nonzero"/><path fill="#bf7968" d="M 259.664062 596.910156 C 259.660156 596.917969 259.660156 596.917969 259.652344 596.917969 C 260.554688 596.714844 261.0625 596.570312 262.265625 596.058594 C 263.140625 595.6875 266.277344 594.347656 267.074219 594.3125 C 267.609375 594.300781 268.292969 594.460938 268.496094 595.03125 C 268.707031 595.621094 268.324219 596.246094 267.949219 596.671875 C 267.417969 597.285156 266.710938 597.734375 265.972656 598.085938 C 265.40625 598.351562 262.851562 600.027344 260.753906 601.398438 C 263.371094 605.378906 267.949219 609.394531 259.359375 605.867188 C 258.84375 606.8125 265.152344 608.308594 263.367188 611.601562 C 263.496094 612.449219 263.878906 614.496094 260.8125 614.226562 C 263.117188 618.746094 245.925781 613.824219 251.035156 605.203125 C 253.652344 602.0625 250.523438 600.351562 259.664062 596.910156 " fill-opacity="1" fill-rule="nonzero"/><path fill="#bf7968" d="M 352.964844 524.957031 C 347.191406 527.003906 339.910156 509.832031 329.140625 503.695312 C 296.320312 497.703125 320.046875 575.375 352.964844 524.957031 " fill-opacity="1" fill-rule="nonzero"/><path fill="#bf7968" d="M 267.542969 635.472656 C 259.371094 644.144531 262.945312 644.894531 265.101562 643.722656 C 264.550781 646.722656 266.953125 646.253906 267.773438 644.988281 C 275.746094 643.671875 279.238281 631.007812 286.878906 633.394531 C 286.878906 633.394531 285.320312 629.03125 284.449219 621.875 C 260.542969 622.34375 263.117188 630.707031 269.992188 627.929688 C 260.371094 637.707031 261.476562 635.953125 260.339844 637.507812 C 259.113281 645.359375 267.441406 635.203125 267.542969 635.472656 " fill-opacity="1" fill-rule="nonzero"/><path fill="#bf7968" d="M 355.9375 548.332031 C 353.191406 550.445312 344.613281 561.964844 339.789062 559.097656 L 333.320312 529.457031 L 352.964844 524.957031 C 352.964844 524.957031 353.320312 526.847656 354.054688 529.601562 C 355.199219 533.882812 358.863281 537.664062 361.875 542.144531 C 362.1875 542.613281 356.394531 547.980469 355.9375 548.332031 " fill-opacity="1" fill-rule="nonzero"/><path fill="#12252e" d="M 312.621094 511.34375 C 311.03125 510.621094 309.144531 510.605469 307.824219 509.34375 C 306.789062 508.347656 306.289062 506.9375 306.03125 505.546875 C 305.300781 501.59375 304.460938 498.125 305.859375 494.441406 C 307.941406 488.972656 313.910156 485.996094 316.835938 485.433594 C 323.367188 484.1875 332.757812 483.382812 340.773438 486.167969 C 342.871094 486.898438 344.140625 488.914062 346.164062 489.796875 C 359.246094 495.511719 353.144531 509.753906 353.746094 512.652344 C 354.792969 517.613281 357.722656 523.402344 356.019531 528.246094 C 355.179688 530.660156 350.8125 532.472656 348.085938 532.722656 C 346.488281 532.886719 345.4375 532.511719 344.636719 531.722656 C 344.449219 531.210938 344.4375 530.675781 344.75 530.203125 C 336.332031 517.503906 350.765625 523.363281 326.183594 511.910156 C 323.910156 510.414062 318.875 511.757812 314.597656 510.625 C 314.667969 511 314.140625 511.589844 312.714844 511.40625 C 312.675781 511.402344 312.65625 511.359375 312.621094 511.34375 " fill-opacity="1" fill-rule="nonzero"/><path fill="#bf7968" d="M 342.75 515.910156 C 342.953125 518.15625 342.113281 520.066406 339.839844 520.304688 C 337.800781 520.523438 335.832031 519.269531 335.371094 517.0625 C 334.914062 514.851562 336.171875 512.765625 338.160156 512.308594 C 341.792969 511.496094 342.558594 513.75 342.75 515.910156 " fill-opacity="1" fill-rule="nonzero"/><path fill="#ffd471" d="M 283.121094 621.15625 C 290.605469 617.8125 297.730469 616.429688 305.011719 614.070312 C 308.777344 612.855469 328.949219 603.589844 330.921875 603.011719 C 330.9375 603 330.953125 602.949219 330.980469 602.894531 C 330.472656 601.078125 330.324219 599.328125 330.253906 597.292969 C 330.160156 594.742188 331.605469 581.910156 332.453125 577.464844 C 333.359375 572.707031 334.210938 567.917969 335.300781 563.191406 C 336.113281 559.628906 337.171875 556.199219 338.457031 552.871094 C 338.738281 554.195312 338.988281 555.421875 339.246094 556.574219 C 341.449219 551.003906 349.082031 545.277344 355 542.472656 C 362.578125 538.859375 369.152344 539.289062 376 543.667969 C 383.277344 548.292969 387.667969 553.953125 391.429688 561.601562 C 400.84375 580.726562 403.964844 585.503906 412.183594 604.410156 C 416.265625 613.8125 420.308594 627.636719 416.773438 639.722656 C 416.640625 639.628906 416.421875 639.484375 416.421875 639.484375 C 399.894531 628.949219 380.308594 627.410156 361.945312 630.832031 C 356.332031 631.878906 344.785156 634.546875 344.785156 634.546875 C 343.066406 630.664062 341.304688 626.796875 339.546875 622.921875 C 337.253906 623.351562 334.992188 623.867188 332.757812 624.605469 C 329.339844 625.738281 325.957031 626.964844 322.5 627.984375 C 319.050781 629.003906 315.550781 629.875 312.027344 630.628906 C 305.164062 632.074219 298.179688 633.007812 291.175781 633.414062 C 289.164062 633.527344 282.964844 634.078125 282.964844 634.078125 C 285.0625 626.871094 282.863281 621.066406 283.121094 621.15625 " fill-opacity="1" fill-rule="nonzero"/><path fill="#2f627c" d="M 350.699219 650.714844 C 351.199219 659.292969 348.34375 668.132812 348.226562 676.714844 L 326.121094 676.714844 C 325.371094 673.398438 318.863281 645.457031 318.4375 639.910156 C 318.4375 639.910156 316.058594 632.015625 315.433594 627.410156 C 314.9375 623.726562 315.433594 616.265625 317.640625 613.160156 C 319.714844 610.238281 323.171875 608.660156 326.648438 608.195312 C 331.113281 607.609375 335.582031 608.867188 339.757812 610.320312 C 348.894531 613.472656 357.832031 617.222656 366.550781 621.394531 C 366.882812 621.480469 367.214844 621.554688 367.546875 621.664062 C 371.636719 622.914062 375.355469 625.011719 379.339844 626.519531 C 383.304688 628.035156 387.460938 628.910156 391.59375 629.8125 C 395.777344 630.734375 399.921875 631.730469 403.933594 633.238281 C 408.304688 634.878906 412.488281 636.980469 416.421875 639.484375 C 411.835938 650.578125 402.21875 659.554688 390.410156 662.367188 C 384.167969 663.851562 377.492188 663.648438 371.394531 661.613281 C 368.148438 660.539062 365.199219 658.878906 362.308594 657.070312 C 359.300781 655.203125 356.285156 653.390625 353.101562 651.832031 C 352.3125 651.453125 351.503906 651.078125 350.699219 650.714844 " fill-opacity="1" fill-rule="nonzero"/><path fill="#12252e" d="M 298.839844 720.886719 C 299.371094 718.101562 301.335938 716.210938 303.542969 714.726562 C 307.785156 711.867188 321.046875 708.085938 322.457031 706.820312 C 325.179688 704.390625 325.683594 700.433594 325.558594 696.941406 C 325.300781 689.566406 324.355469 682.15625 323.730469 674.8125 C 323.730469 674.8125 333.058594 677.078125 349.039062 674.503906 C 349.039062 674.503906 347.949219 687.6875 347.410156 694.304688 C 347.148438 697.523438 346.867188 700.753906 347.105469 703.996094 C 347.324219 706.832031 347.9375 709.613281 348.507812 712.398438 C 349.082031 715.160156 349.640625 717.949219 349.726562 720.792969 C 349.738281 721.300781 349.726562 722.328125 349.726562 722.328125 C 347.96875 724.125 343.796875 723.980469 341.824219 723.898438 C 336.867188 723.683594 332.089844 722.921875 327.078125 723.234375 C 320.636719 723.652344 314.261719 724.707031 307.804688 724.960938 C 305.59375 725.039062 303.484375 725.019531 301.488281 724.691406 C 298.914062 724.027344 298.699219 721.652344 298.839844 720.886719 " fill-opacity="1" fill-rule="nonzero"/><path fill="#12252e" d="M 411.140625 722.914062 C 408.519531 721.789062 407.109375 719.453125 406.144531 716.980469 C 404.285156 712.222656 403.472656 698.457031 402.550781 696.796875 C 400.773438 693.625 397.023438 692.269531 393.589844 691.625 C 386.328125 690.269531 378.894531 689.578125 371.582031 688.597656 C 371.582031 688.597656 375.832031 679.96875 376.796875 663.824219 C 376.796875 663.824219 389.453125 667.761719 395.777344 669.726562 C 398.855469 670.691406 401.957031 671.667969 405.164062 672.132812 C 407.980469 672.550781 410.84375 672.5625 413.671875 672.609375 C 416.496094 672.644531 419.351562 672.714844 422.132812 673.246094 C 422.625 673.347656 423.640625 673.578125 423.640625 673.578125 C 425.011719 675.695312 423.953125 679.726562 423.441406 681.628906 C 422.152344 686.425781 420.367188 690.929688 419.597656 695.878906 C 418.59375 702.25 418.222656 708.703125 417.058594 715.046875 C 416.660156 717.230469 416.183594 719.285156 415.433594 721.167969 C 414.222656 723.523438 411.851562 723.214844 411.140625 722.914062 " fill-opacity="1" fill-rule="nonzero"/><path fill="#2f627c" d="M 72.847656 303.023438 C 72.503906 303.023438 72.15625 302.949219 71.824219 302.792969 C 70.625 302.230469 70.109375 300.796875 70.675781 299.59375 C 78.695312 282.554688 90.59375 271.832031 106.027344 267.730469 C 141.582031 258.277344 183.101562 286.988281 184.851562 288.214844 C 185.941406 288.972656 186.203125 290.472656 185.4375 291.554688 C 184.675781 292.644531 183.179688 292.910156 182.089844 292.144531 C 181.683594 291.855469 140.636719 263.503906 107.25 272.382812 C 93.253906 276.105469 82.414062 285.949219 75.027344 301.640625 C 74.613281 302.511719 73.75 303.023438 72.847656 303.023438 " fill-opacity="1" fill-rule="nonzero"/><path fill="#2f627c" d="M 68.921875 396.589844 C 61.148438 396.589844 52.320312 394.636719 42.300781 390.722656 C 41.0625 390.242188 40.449219 388.847656 40.929688 387.613281 C 41.417969 386.375 42.808594 385.765625 44.050781 386.242188 C 62.027344 393.265625 75.621094 393.597656 85.613281 387.28125 C 97 380.074219 103.648438 363.886719 105.375 339.164062 C 106.484375 323.402344 111.84375 313.015625 121.320312 308.296875 C 141.570312 298.203125 172.808594 318.230469 174.128906 319.089844 C 175.246094 319.808594 175.558594 321.296875 174.832031 322.414062 C 174.109375 323.527344 172.621094 323.839844 171.507812 323.121094 C 171.207031 322.925781 141.257812 303.726562 123.460938 312.601562 C 115.621094 316.507812 111.148438 325.5625 110.171875 339.496094 C 108.332031 365.832031 100.929688 383.273438 88.1875 391.335938 C 82.652344 394.835938 76.265625 396.589844 68.921875 396.589844 " fill-opacity="1" fill-rule="nonzero"/><path fill="#ee9681" d="M 622.59375 505.035156 C 624.242188 504.140625 625.925781 503.289062 627.605469 502.4375 L 622.5 493.484375 C 621.152344 493.652344 619.796875 493.578125 618.410156 493.109375 C 615.21875 492.027344 611.511719 490.59375 607.980469 491.136719 C 607.109375 491.273438 606.300781 491.828125 606.558594 492.773438 C 606.859375 493.875 608.105469 494.09375 609.019531 494.472656 C 609.972656 494.863281 610.617188 495.53125 610.402344 496.679688 C 610.265625 497.453125 609.269531 498.113281 608.644531 498.488281 C 607.703125 499.050781 606.691406 499.515625 605.6875 499.945312 C 603.613281 500.839844 601.460938 501.234375 599.339844 501.9375 C 598.449219 502.222656 597.351562 503.039062 597.828125 504.058594 C 598.335938 505.167969 599.8125 504.867188 600.953125 504.753906 C 599.851562 505.265625 598.34375 505.929688 598.695312 507.214844 C 598.96875 508.242188 600.035156 508.289062 601.085938 508.183594 C 600.101562 508.628906 599.320312 509.355469 600.078125 510.398438 C 600.570312 511.070312 601.585938 511.050781 602.632812 510.832031 C 602.25 511.015625 601.863281 511.1875 601.472656 511.402344 C 601.410156 511.4375 601.367188 511.507812 601.378906 511.578125 C 601.628906 512.890625 602.875 513.085938 604.085938 512.953125 C 606.46875 512.710938 608.886719 512.195312 611.234375 511.726562 C 613.257812 511.328125 615.355469 510.839844 617.089844 509.667969 C 617.9375 509.097656 618.597656 508.367188 619.289062 507.625 C 620.277344 506.570312 621.3125 505.75 622.59375 505.035156 " fill-opacity="1" fill-rule="nonzero"/><path fill="#25716d" d="M 653.25 468.78125 L 653.25 489.148438 C 652.855469 490.429688 652.25 490.835938 651.078125 491.292969 C 650.339844 491.589844 649.59375 491.851562 648.855469 492.132812 C 647.558594 492.628906 646.257812 493.109375 644.960938 493.597656 C 639.582031 495.613281 634.199219 497.617188 628.792969 499.578125 C 628.417969 499.703125 627.359375 500.203125 626.390625 500.546875 L 621.3125 492.570312 C 632.777344 482.691406 646.0625 477.070312 653.25 468.78125 " fill-opacity="1" fill-rule="nonzero"/><path fill="#ffa18a" d="M 613.101562 666.625 L 596.871094 656.9375 C 598.09375 655.140625 599.289062 653.328125 600.398438 651.460938 C 604.191406 645.03125 607.308594 638.175781 610.269531 631.339844 C 613.132812 624.742188 615.460938 618.011719 616.722656 610.925781 C 617.398438 607.152344 617.941406 603.328125 619.183594 599.6875 C 620.140625 596.871094 621.515625 594.253906 623.234375 591.851562 L 649.558594 599.757812 C 646.558594 604.132812 640.347656 614.382812 639.21875 619.652344 C 638.597656 622.5 638.097656 625.351562 637.226562 628.140625 C 636.382812 630.839844 635.332031 633.476562 634.121094 636.035156 C 629.050781 646.808594 621.417969 656.167969 614.058594 665.441406 C 613.746094 665.835938 613.414062 666.222656 613.101562 666.625 " fill-opacity="1" fill-rule="nonzero"/><path fill="#ffd471" d="M 596.644531 656.800781 C 597.421875 655.097656 598.203125 653.390625 599.007812 651.699219 C 599.007812 651.699219 603.601562 655.171875 617.449219 662.441406 C 617.449219 662.441406 615.902344 664.558594 614.003906 667.167969 L 596.644531 656.800781 " fill-opacity="1" fill-rule="nonzero"/><path fill="#12252e" d="M 558.140625 677.910156 C 559.769531 676.070312 562.054688 675.542969 564.355469 675.425781 C 568.75 675.179688 580.234375 678.242188 581.832031 677.921875 C 584.925781 677.328125 587.039062 674.628906 588.492188 672 C 591.5625 666.417969 594.136719 660.527344 596.921875 654.804688 C 596.921875 654.804688 602.828125 660.613281 615.777344 665.765625 C 615.777344 665.765625 609.152344 675.042969 605.824219 679.699219 C 604.203125 681.960938 602.570312 684.226562 601.324219 686.730469 C 600.226562 688.929688 599.445312 691.257812 598.644531 693.566406 C 597.84375 695.871094 597.015625 698.175781 595.832031 700.308594 C 595.617188 700.691406 595.148438 701.453125 595.148438 701.453125 C 593.058594 702.011719 590.039062 700.046875 588.617188 699.121094 C 585.042969 696.765625 581.835938 694.097656 577.992188 692.128906 C 573.046875 689.59375 567.859375 687.542969 562.976562 684.878906 C 561.304688 683.964844 559.75 683.019531 558.417969 681.898438 C 556.816406 680.265625 557.703125 678.410156 558.140625 677.910156 " fill-opacity="1" fill-rule="nonzero"/><path fill="#ffa18a" d="M 690.746094 674.027344 L 671.855469 674.027344 C 671.980469 671.871094 672.074219 669.695312 672.0625 667.519531 C 672.03125 660.0625 671.191406 652.570312 670.226562 645.183594 C 669.292969 638.046875 667.839844 631.070312 665.292969 624.347656 C 663.933594 620.765625 662.449219 617.207031 661.636719 613.4375 C 661.023438 610.53125 660.859375 607.582031 661.105469 604.640625 L 687.984375 604.640625 C 687.660156 609.929688 687.347656 615.207031 689.074219 620.316406 C 690.019531 623.078125 691.042969 625.769531 691.722656 628.613281 C 692.386719 631.371094 692.832031 634.171875 693.109375 636.988281 C 694.277344 648.839844 692.523438 660.789062 690.964844 672.507812 C 690.898438 673.019531 690.820312 673.523438 690.746094 674.027344 " fill-opacity="1" fill-rule="nonzero"/><path fill="#ffd471" d="M 671.585938 674.027344 C 671.378906 672.164062 671.171875 670.296875 670.996094 668.433594 C 670.996094 668.433594 676.734375 669.046875 692.335938 668.207031 C 692.335938 668.207031 692.097656 670.816406 691.804688 674.027344 L 671.585938 674.027344 " fill-opacity="1" fill-rule="nonzero"/><path fill="#12252e" d="M 649.355469 711.890625 C 649.808594 709.472656 651.503906 707.851562 653.402344 706.570312 C 657.066406 704.101562 668.492188 700.847656 669.707031 699.753906 C 672.050781 697.660156 672.480469 694.253906 672.375 691.257812 C 672.15625 684.898438 671.34375 678.511719 670.796875 672.183594 C 670.796875 672.183594 678.851562 674.136719 692.613281 671.90625 C 692.613281 671.90625 691.679688 683.28125 691.210938 688.972656 C 690.984375 691.75 690.734375 694.539062 690.953125 697.324219 C 691.136719 699.769531 691.660156 702.164062 692.15625 704.566406 C 692.652344 706.953125 693.125 709.355469 693.203125 711.796875 C 693.21875 712.234375 693.207031 713.136719 693.207031 713.136719 C 691.691406 714.675781 688.09375 714.550781 686.402344 714.46875 C 682.117188 714.289062 678.003906 713.636719 673.691406 713.917969 C 668.140625 714.269531 662.644531 715.175781 657.085938 715.382812 C 655.175781 715.464844 653.359375 715.441406 651.636719 715.171875 C 649.417969 714.589844 649.238281 712.542969 649.355469 711.890625 " fill-opacity="1" fill-rule="nonzero"/><path fill="#ffa18a" d="M 696.828125 399.53125 C 696.984375 396.953125 698.523438 396.683594 698.523438 396.683594 C 698.523438 396.683594 694.347656 396.265625 693.363281 392.375 C 693.339844 392.320312 687.777344 366.316406 680.402344 366.222656 C 673.652344 366.140625 667.910156 367.386719 667.921875 379.292969 C 667.929688 384.769531 665.96875 384.714844 663.738281 387.730469 C 663.164062 388.507812 663.601562 389.777344 664.667969 389.640625 L 665.9375 389.667969 C 666.230469 389.671875 666.453125 389.910156 666.464844 390.191406 C 666.53125 392.640625 666.828125 394.925781 667.433594 396.960938 C 668.84375 401.730469 668.460938 406.769531 676.796875 406.269531 C 677.773438 406.207031 678.71875 406.09375 679.644531 405.949219 L 677.933594 422.476562 C 681.183594 426.292969 691.597656 418.761719 694.496094 417.710938 C 694.972656 417.535156 701.34375 414.53125 701.203125 414.035156 C 699.921875 409.324219 696.59375 403.550781 696.828125 399.53125 " fill-opacity="1" fill-rule="nonzero"/><path fill="#c1e5fd" d="M 204.140625 84.964844 L 137.429688 413.785156 C 136.484375 418.46875 139.507812 423.027344 144.191406 423.976562 L 598.542969 516.101562 C 603.226562 517.054688 607.785156 514.03125 608.738281 509.355469 L 675.441406 180.527344 L 204.140625 84.964844 " fill-opacity="1" fill-rule="nonzero"/><g clip-path="url(#64dfff2a4b)"><path fill="#2f627c" d="M 670.527344 156.976562 L 217.847656 65.1875 C 212.703125 64.148438 207.6875 67.472656 206.648438 72.613281 L 202.3125 93.953125 L 673.621094 189.515625 L 677.949219 168.179688 C 678.992188 163.035156 675.667969 158.019531 670.527344 156.976562 " fill-opacity="1" fill-rule="nonzero"/></g><path fill="#98d4fc" d="M 606.882812 160.074219 C 606.105469 163.890625 602.382812 166.363281 598.554688 165.589844 C 594.742188 164.8125 592.269531 161.085938 593.046875 157.261719 C 593.820312 153.445312 597.546875 150.976562 601.367188 151.753906 C 605.191406 152.53125 607.660156 156.25 606.882812 160.074219 " fill-opacity="1" fill-rule="nonzero"/><path fill="#ffd471" d="M 629.6875 164.648438 C 628.914062 168.476562 625.1875 170.941406 621.359375 170.164062 C 617.546875 169.394531 615.074219 165.671875 615.851562 161.84375 C 616.628906 158.027344 620.351562 155.558594 624.167969 156.328125 C 627.992188 157.105469 630.464844 160.832031 629.6875 164.648438 " fill-opacity="1" fill-rule="nonzero"/><path fill="#a2ddd0" d="M 652.496094 169.230469 C 651.71875 173.050781 647.984375 175.523438 644.167969 174.746094 C 640.347656 173.972656 637.878906 170.246094 638.65625 166.421875 C 639.425781 162.601562 643.15625 160.136719 646.972656 160.914062 C 650.796875 161.6875 653.265625 165.40625 652.496094 169.230469 " fill-opacity="1" fill-rule="nonzero"/><path fill="#4693b9" d="M 329.570312 224.492188 L 307.453125 220.003906 L 304.417969 234.96875 L 330.371094 240.234375 L 328.492188 249.488281 L 291.023438 241.886719 L 302.363281 186.003906 L 339.757812 193.585938 L 337.863281 202.914062 L 311.988281 197.667969 L 309.28125 210.988281 L 331.398438 215.46875 L 329.570312 224.492188 " fill-opacity="1" fill-rule="nonzero"/><path fill="#4693b9" d="M 352.816406 223.40625 L 362.105469 225.292969 C 365 225.875 367.386719 225.597656 369.269531 224.445312 C 371.15625 223.296875 372.363281 221.429688 372.882812 218.84375 C 373.421875 216.207031 373.089844 213.988281 371.898438 212.171875 C 370.710938 210.355469 368.570312 209.132812 365.46875 208.507812 L 356.214844 206.628906 Z M 360.097656 234.59375 L 350.921875 232.730469 L 346.773438 253.195312 L 335.25 250.859375 L 346.589844 194.96875 L 367.359375 199.179688 C 373.964844 200.519531 378.761719 203.023438 381.75 206.691406 C 384.730469 210.367188 385.683594 214.886719 384.59375 220.257812 C 383.816406 224.070312 382.34375 227.082031 380.179688 229.292969 C 378.011719 231.507812 375.101562 233.03125 371.4375 233.855469 L 378.902344 259.148438 L 378.789062 259.6875 L 366.425781 257.183594 L 360.097656 234.59375 " fill-opacity="1" fill-rule="nonzero"/><path fill="#4693b9" d="M 402.996094 233.582031 L 412.289062 235.464844 C 415.179688 236.054688 417.566406 235.773438 419.453125 234.621094 C 421.335938 233.472656 422.546875 231.601562 423.066406 229.015625 C 423.601562 226.382812 423.269531 224.160156 422.082031 222.34375 C 420.890625 220.535156 418.746094 219.3125 415.652344 218.679688 L 406.394531 216.808594 Z M 410.277344 244.769531 L 401.097656 242.910156 L 396.953125 263.367188 L 385.4375 261.03125 L 396.773438 205.148438 L 417.542969 209.355469 C 424.148438 210.695312 428.945312 213.199219 431.929688 216.867188 C 434.910156 220.539062 435.863281 225.0625 434.773438 230.433594 C 433.996094 234.246094 432.527344 237.253906 430.359375 239.472656 C 428.191406 241.679688 425.28125 243.203125 421.617188 244.035156 L 429.082031 269.320312 L 428.96875 269.863281 L 416.609375 267.355469 L 410.277344 244.769531 " fill-opacity="1" fill-rule="nonzero"/><path fill="#4693b9" d="M 475.789062 248.941406 C 476.972656 243.082031 476.828125 238.414062 475.351562 234.945312 C 473.867188 231.476562 471.179688 229.34375 467.292969 228.554688 C 463.429688 227.769531 460.140625 228.671875 457.429688 231.253906 C 454.722656 233.832031 452.765625 238.027344 451.5625 243.828125 L 451.003906 246.550781 C 449.851562 252.261719 450.003906 256.898438 451.460938 260.472656 C 452.921875 264.042969 455.621094 266.234375 459.5625 267.035156 C 463.429688 267.816406 466.703125 266.902344 469.394531 264.285156 C 472.082031 261.675781 474.027344 257.46875 475.238281 251.667969 Z M 486.941406 253.839844 C 485.824219 259.339844 483.878906 263.96875 481.09375 267.71875 C 478.304688 271.472656 474.875 274.101562 470.796875 275.625 C 466.714844 277.140625 462.332031 277.425781 457.648438 276.476562 C 453.015625 275.535156 449.105469 273.582031 445.925781 270.621094 C 442.746094 267.65625 440.574219 263.90625 439.414062 259.367188 C 438.253906 254.828125 438.210938 249.875 439.277344 244.5 L 439.832031 241.730469 C 440.949219 236.230469 442.925781 231.589844 445.757812 227.808594 C 448.585938 224.027344 452.042969 221.386719 456.121094 219.878906 C 460.195312 218.367188 464.5625 218.09375 469.21875 219.03125 C 473.878906 219.984375 477.792969 221.941406 480.960938 224.910156 C 484.128906 227.882812 486.277344 231.664062 487.410156 236.253906 C 488.550781 240.835938 488.5625 245.871094 487.449219 251.347656 L 486.941406 253.839844 " fill-opacity="1" fill-rule="nonzero"/><path fill="#4693b9" d="M 507.464844 254.765625 L 516.753906 256.648438 C 519.644531 257.230469 522.039062 256.957031 523.921875 255.804688 C 525.808594 254.652344 527.007812 252.785156 527.535156 250.203125 C 528.066406 247.566406 527.742188 245.34375 526.550781 243.527344 C 525.355469 241.71875 523.214844 240.5 520.121094 239.867188 L 510.867188 237.988281 Z M 514.75 265.953125 L 505.570312 264.09375 L 501.417969 284.550781 L 489.902344 282.214844 L 501.242188 226.332031 L 522.011719 230.539062 C 528.613281 231.878906 533.410156 234.382812 536.394531 238.050781 C 539.382812 241.71875 540.335938 246.246094 539.246094 251.617188 C 538.46875 255.429688 536.996094 258.441406 534.832031 260.65625 C 532.664062 262.867188 529.746094 264.386719 526.089844 265.214844 L 533.554688 290.503906 L 533.441406 291.042969 L 521.078125 288.539062 L 514.75 265.953125 " fill-opacity="1" fill-rule="nonzero"/><path fill="#2f627c" d="M 292.738281 344.894531 L 313.636719 349.132812 L 320.398438 315.785156 L 318.730469 317.675781 Z M 332.390625 352.929688 L 343.097656 355.105469 L 340.027344 370.222656 L 329.320312 368.050781 L 325.175781 388.488281 L 306.421875 384.683594 L 310.566406 364.25 L 271.824219 356.394531 L 273.378906 344.410156 L 325.394531 290.179688 L 344.34375 294.023438 L 332.390625 352.929688 " fill-opacity="1" fill-rule="nonzero"/><path fill="#2f627c" d="M 402.589844 343.617188 C 404.179688 335.777344 404.261719 329.855469 402.84375 325.851562 C 401.429688 321.84375 398.449219 319.382812 393.910156 318.460938 C 389.496094 317.566406 385.894531 318.605469 383.109375 321.582031 C 380.316406 324.554688 378.125 329.644531 376.527344 336.84375 L 371.863281 359.835938 C 370.304688 367.542969 370.191406 373.484375 371.53125 377.652344 C 372.863281 381.820312 375.851562 384.371094 380.480469 385.308594 C 385.0625 386.242188 388.738281 385.113281 391.503906 381.941406 C 394.265625 378.753906 396.441406 373.472656 398.03125 366.085938 Z M 417.464844 366.535156 C 414.816406 379.601562 410.085938 389.039062 403.269531 394.867188 C 396.457031 400.691406 387.84375 402.542969 377.417969 400.433594 C 367.117188 398.34375 359.933594 393.351562 355.859375 385.453125 C 351.789062 377.558594 350.96875 367.261719 353.410156 354.566406 L 356.933594 337.175781 C 359.613281 323.984375 364.378906 314.519531 371.242188 308.796875 C 378.097656 303.074219 386.679688 301.253906 396.972656 303.34375 C 407.273438 305.429688 414.460938 310.414062 418.539062 318.289062 C 422.613281 326.164062 423.433594 336.449219 420.992188 349.148438 L 417.464844 366.535156 " fill-opacity="1" fill-rule="nonzero"/><path fill="#2f627c" d="M 445.242188 375.820312 L 466.140625 380.058594 L 472.902344 346.703125 L 471.234375 348.597656 Z M 484.894531 383.855469 L 495.605469 386.027344 L 492.539062 401.148438 L 481.832031 398.976562 L 477.679688 419.410156 L 458.925781 415.609375 L 463.070312 395.167969 L 424.328125 387.3125 L 425.882812 375.335938 L 477.898438 321.105469 L 496.847656 324.941406 L 484.894531 383.855469 " fill-opacity="1" fill-rule="nonzero"/><path fill="#ffa18a" d="M 624.136719 511.0625 C 625.78125 510.164062 627.464844 509.3125 629.144531 508.460938 L 624.039062 499.507812 C 622.695312 499.683594 621.335938 499.601562 619.953125 499.132812 C 616.757812 498.054688 613.050781 496.617188 609.519531 497.160156 C 608.648438 497.296875 607.84375 497.847656 608.097656 498.792969 C 608.398438 499.894531 609.640625 500.121094 610.558594 500.496094 C 611.503906 500.882812 612.148438 501.5625 611.941406 502.699219 C 611.804688 503.484375 610.808594 504.140625 610.175781 504.515625 C 609.246094 505.078125 608.230469 505.542969 607.226562 505.96875 C 605.15625 506.863281 603 507.257812 600.871094 507.957031 C 599.984375 508.253906 598.886719 509.066406 599.363281 510.082031 C 599.875 511.1875 601.355469 510.886719 602.488281 510.777344 C 601.386719 511.296875 599.875 511.960938 600.226562 513.242188 C 600.507812 514.261719 601.566406 514.3125 602.625 514.210938 C 601.644531 514.652344 600.859375 515.382812 601.617188 516.421875 C 602.105469 517.09375 603.125 517.078125 604.171875 516.855469 C 603.789062 517.042969 603.394531 517.21875 603.015625 517.429688 C 602.953125 517.460938 602.90625 517.53125 602.921875 517.597656 C 603.164062 518.914062 604.417969 519.109375 605.625 518.976562 C 608.011719 518.734375 610.429688 518.226562 612.777344 517.757812 C 614.792969 517.347656 616.890625 516.855469 618.628906 515.691406 C 619.476562 515.121094 620.140625 514.386719 620.828125 513.65625 C 621.8125 512.589844 622.851562 511.777344 624.136719 511.0625 " fill-opacity="1" fill-rule="nonzero"/><path fill="#2a817d" d="M 602.3125 579.375 C 637.765625 611.945312 702.15625 614.464844 702.117188 614.214844 C 699.371094 598.09375 703.214844 581.972656 705.789062 566.097656 C 708.042969 552.210938 708.691406 538.257812 706.871094 524.265625 C 705.96875 517.394531 704.417969 510.699219 702.667969 504.003906 C 700.882812 497.148438 699.195312 490.109375 699.988281 482.980469 C 700.734375 476.339844 703.375 470.121094 705.664062 463.898438 C 707.816406 458.027344 709.476562 452.074219 709.839844 445.800781 C 710.535156 433.925781 707.382812 421.945312 700.652344 412.148438 C 695.53125 415.394531 686.246094 417.65625 678.316406 418.757812 L 678.511719 416.902344 C 670.753906 426.675781 663.070312 439.015625 658.378906 450.578125 C 654.566406 459.992188 651.90625 469.859375 650.359375 479.894531 C 643.964844 484.558594 629.601562 494.230469 623.214844 498.894531 C 625.324219 502.347656 626.425781 505.671875 626.847656 510.75 C 630.855469 510.792969 645.160156 505.59375 648.425781 503.4375 C 647.890625 508.972656 646.59375 514.195312 643.640625 519.070312 C 640.558594 524.160156 608.191406 568.433594 602.3125 579.375 " fill-opacity="1" fill-rule="nonzero"/><path fill="#25716d" d="M 648.316406 503.3125 C 655.539062 499.707031 662.636719 495.769531 669 490.769531 C 674.515625 486.4375 679.457031 481.371094 683.675781 475.769531 C 691.941406 464.8125 697.523438 451.8125 699.542969 438.21875 C 700.191406 433.914062 701.042969 428.765625 698.503906 424.898438 C 695.425781 420.203125 689.714844 421.511719 686.019531 424.640625 C 685.855469 424.785156 685.613281 424.546875 685.78125 424.402344 C 688.21875 422.332031 691.597656 420.710938 694.847656 421.667969 C 698.003906 422.582031 699.808594 425.707031 700.320312 428.785156 C 700.933594 432.511719 700.214844 436.503906 699.570312 440.1875 C 698.925781 443.917969 698.011719 447.597656 696.839844 451.203125 C 692.269531 465.363281 683.867188 478.292969 672.699219 488.132812 C 665.460938 494.503906 657.085938 499.3125 648.488281 503.609375 C 648.292969 503.703125 648.117188 503.40625 648.316406 503.3125 " fill-opacity="1" fill-rule="nonzero"/><path fill="#25716d" d="M 680.371094 437.050781 C 675.550781 444.128906 672.414062 452.125 668.417969 459.667969 C 666.515625 463.265625 664.402344 466.765625 661.832031 469.933594 C 658.894531 473.546875 655.28125 476.457031 651.835938 479.554688 C 651.675781 479.699219 651.429688 479.457031 651.59375 479.3125 C 654.980469 476.269531 658.53125 473.414062 661.4375 469.882812 C 664.160156 466.566406 666.371094 462.859375 668.355469 459.058594 C 672.230469 451.640625 675.347656 443.816406 680.082031 436.878906 C 680.203125 436.699219 680.496094 436.863281 680.371094 437.050781 " fill-opacity="1" fill-rule="nonzero"/><path fill="#a55852" d="M 669.664062 356.367188 C 671.972656 354.808594 674.441406 356.929688 676.765625 355.898438 C 684.574219 352.4375 691.8125 352.085938 697.621094 353.445312 C 701.585938 354.371094 704.472656 356.378906 706.703125 358.941406 C 707.734375 357.425781 709.15625 356.304688 710.898438 355.828125 C 715.65625 354.527344 720.882812 358.507812 722.582031 364.714844 C 724.277344 370.921875 722.148438 379.800781 717.390625 381.097656 C 716.03125 381.464844 714.246094 381.265625 712.90625 380.839844 C 713.082031 390.699219 710.621094 400.121094 701.210938 402.976562 C 693.402344 405.339844 693.652344 397.621094 691.886719 393.941406 C 690.183594 390.390625 684.765625 389.003906 682.414062 382.171875 C 681.941406 380.828125 680.039062 376.550781 677.273438 374.179688 C 673.410156 370.867188 665.949219 372.988281 665.96875 363.65625 C 665.976562 360.902344 667.296875 357.957031 669.664062 356.367188 " fill-opacity="1" fill-rule="nonzero"/><path fill="#ffd471" d="M 64.117188 304.589844 L 54.425781 304.589844 C 53.875 304.589844 53.433594 304.144531 53.433594 303.59375 C 53.433594 303.050781 53.875 302.605469 54.425781 302.605469 L 64.117188 302.605469 C 64.664062 302.605469 65.105469 303.050781 65.105469 303.59375 C 65.105469 304.144531 64.664062 304.589844 64.117188 304.589844 " fill-opacity="1" fill-rule="nonzero"/><path fill="#ffd471" d="M 66.699219 311.351562 L 59.929688 318.28125 C 59.546875 318.667969 58.921875 318.683594 58.53125 318.300781 C 58.136719 317.917969 58.132812 317.292969 58.511719 316.898438 L 65.28125 309.960938 C 65.664062 309.574219 66.289062 309.566406 66.683594 309.949219 C 67.074219 310.332031 67.085938 310.957031 66.699219 311.351562 " fill-opacity="1" fill-rule="nonzero"/><path fill="#ffd471" d="M 74.035156 311.519531 L 75.625 321.078125 C 75.714844 321.617188 75.351562 322.132812 74.808594 322.21875 C 74.269531 322.304688 73.761719 321.945312 73.667969 321.40625 L 72.082031 311.847656 C 71.988281 311.308594 72.359375 310.792969 72.898438 310.707031 C 73.433594 310.613281 73.949219 310.980469 74.035156 311.519531 " fill-opacity="1" fill-rule="nonzero"/><path fill="#ffd471" d="M 41.644531 368.851562 L 43.441406 379.679688 C 43.542969 380.289062 43.128906 380.871094 42.515625 380.964844 C 41.90625 381.070312 41.332031 380.65625 41.226562 380.042969 L 39.429688 369.214844 C 39.328125 368.605469 39.742188 368.023438 40.355469 367.925781 C 40.960938 367.824219 41.542969 368.238281 41.644531 368.851562 " fill-opacity="1" fill-rule="nonzero"/><path fill="#ffd471" d="M 25.613281 377.128906 L 34.925781 382.9375 C 35.453125 383.269531 35.613281 383.957031 35.28125 384.484375 C 34.957031 385.007812 34.261719 385.171875 33.734375 384.839844 L 24.425781 379.023438 C 23.898438 378.699219 23.742188 378.007812 24.066406 377.484375 C 24.394531 376.957031 25.089844 376.796875 25.613281 377.128906 " fill-opacity="1" fill-rule="nonzero"/><path fill="#ffd471" d="M 25.269531 394.28125 L 35.671875 390.769531 C 36.257812 390.566406 36.898438 390.886719 37.09375 391.476562 C 37.292969 392.0625 36.980469 392.695312 36.390625 392.894531 L 25.984375 396.402344 C 25.394531 396.601562 24.761719 396.289062 24.5625 395.699219 C 24.367188 395.113281 24.679688 394.472656 25.269531 394.28125 " fill-opacity="1" fill-rule="nonzero"/><path fill="#2f627c" d="M 108.875 580.214844 C 108.726562 580.214844 108.574219 580.203125 108.417969 580.171875 C 107.222656 579.9375 78.957031 574.277344 66.835938 553.507812 C 60.554688 542.746094 59.835938 529.957031 64.6875 515.515625 C 65.113281 514.257812 66.480469 513.574219 67.738281 514 C 68.996094 514.425781 69.671875 515.785156 69.246094 517.042969 C 64.855469 530.105469 65.4375 541.558594 70.980469 551.066406 C 81.984375 569.945312 109.058594 575.398438 109.332031 575.449219 C 110.636719 575.707031 111.488281 576.964844 111.238281 578.265625 C 111.011719 579.417969 110.011719 580.214844 108.875 580.214844 " fill-opacity="1" fill-rule="nonzero"/><path fill="#2f627c" d="M 49.652344 625.113281 C 40.898438 625.113281 33.835938 619.789062 30.863281 610.476562 C 26.835938 597.855469 31.90625 580.921875 49.246094 574.398438 C 69.113281 566.929688 110.84375 584.414062 112.613281 585.160156 C 113.835938 585.679688 114.40625 587.09375 113.886719 588.316406 C 113.371094 589.535156 111.957031 590.109375 110.738281 589.585938 C 110.324219 589.417969 69.007812 572.09375 50.9375 578.898438 C 36.378906 584.375 32.089844 598.507812 35.445312 609.011719 C 37.675781 616.003906 43.875 622.453125 54.601562 619.628906 C 55.890625 619.285156 57.203125 620.058594 57.542969 621.34375 C 57.882812 622.625 57.109375 623.941406 55.828125 624.28125 C 53.703125 624.84375 51.632812 625.113281 49.652344 625.113281 " fill-opacity="1" fill-rule="nonzero"/><path fill="#ffd471" d="M 73.242188 511.644531 L 85.207031 507.609375 C 85.882812 507.382812 86.617188 507.746094 86.847656 508.421875 C 87.074219 509.097656 86.710938 509.832031 86.035156 510.054688 L 74.066406 514.09375 C 73.390625 514.320312 72.660156 513.957031 72.425781 513.28125 C 72.203125 512.609375 72.566406 511.871094 73.242188 511.644531 " fill-opacity="1" fill-rule="nonzero"/><path fill="#ffd471" d="M 67.554688 506.003906 L 69.964844 493.609375 C 70.105469 492.910156 70.78125 492.453125 71.480469 492.589844 C 72.183594 492.726562 72.640625 493.402344 72.503906 494.105469 L 70.089844 506.5 C 69.953125 507.203125 69.277344 507.660156 68.578125 507.519531 C 67.875 507.382812 67.425781 506.707031 67.554688 506.003906 " fill-opacity="1" fill-rule="nonzero"/><path fill="#ffd471" d="M 61.519531 511.507812 L 54.238281 501.191406 C 53.828125 500.609375 53.96875 499.808594 54.550781 499.394531 C 55.132812 498.980469 55.941406 499.121094 56.351562 499.707031 L 63.636719 510.023438 C 64.042969 510.605469 63.90625 511.414062 63.324219 511.820312 C 62.742188 512.234375 61.933594 512.097656 61.519531 511.507812 " fill-opacity="1" fill-rule="nonzero"/><path fill="#ffd471" d="M 68.859375 607.753906 L 61.304688 617.015625 C 60.875 617.542969 60.109375 617.617188 59.585938 617.191406 C 59.058594 616.765625 58.984375 615.996094 59.410156 615.472656 L 66.960938 606.207031 C 67.386719 605.6875 68.15625 605.605469 68.683594 606.03125 C 69.207031 606.457031 69.285156 607.226562 68.859375 607.753906 " fill-opacity="1" fill-rule="nonzero"/><path fill="#ffd471" d="M 75.234375 621.800781 L 63.433594 623.765625 C 62.773438 623.871094 62.140625 623.429688 62.03125 622.757812 C 61.921875 622.09375 62.363281 621.460938 63.035156 621.355469 L 74.832031 619.390625 C 75.496094 619.277344 76.121094 619.726562 76.234375 620.390625 C 76.347656 621.0625 75.894531 621.6875 75.234375 621.800781 " fill-opacity="1" fill-rule="nonzero"/><path fill="#29566d" d="M 220.542969 722.515625 L 103.984375 722.515625 L 103.984375 569.578125 L 220.542969 569.578125 L 220.542969 722.515625 " fill-opacity="1" fill-rule="nonzero"/><path fill="#4693b9" d="M 228.582031 587.699219 C 228.582031 590.128906 226.589844 592.121094 224.160156 592.121094 L 100.367188 592.121094 C 97.9375 592.121094 95.945312 590.128906 95.945312 587.699219 L 95.945312 570.023438 C 95.945312 567.585938 97.9375 565.597656 100.367188 565.597656 L 224.160156 565.597656 C 226.589844 565.597656 228.582031 567.585938 228.582031 570.023438 L 228.582031 587.699219 " fill-opacity="1" fill-rule="nonzero"/><path fill="#98d4fc" d="M 187.242188 579.300781 C 187.242188 580.277344 186.445312 581.070312 185.476562 581.070312 L 105.007812 581.070312 C 104.035156 581.070312 103.242188 580.277344 103.242188 579.300781 L 103.242188 578.417969 C 103.242188 577.445312 104.035156 576.652344 105.007812 576.652344 L 185.476562 576.652344 C 186.445312 576.652344 187.242188 577.445312 187.242188 578.417969 L 187.242188 579.300781 " fill-opacity="1" fill-rule="nonzero"/><path fill="#ffbc33" d="M 202.3125 578.863281 C 202.3125 580.082031 201.324219 581.070312 200.105469 581.070312 C 198.882812 581.070312 197.898438 580.082031 197.898438 578.863281 C 197.898438 577.640625 198.882812 576.652344 200.105469 576.652344 C 201.324219 576.652344 202.3125 577.640625 202.3125 578.863281 " fill-opacity="1" fill-rule="nonzero"/><path fill="#a2ddd0" d="M 211.476562 578.863281 C 211.476562 580.082031 210.484375 581.070312 209.265625 581.070312 C 208.042969 581.070312 207.054688 580.082031 207.054688 578.863281 C 207.054688 577.640625 208.042969 576.652344 209.265625 576.652344 C 210.484375 576.652344 211.476562 577.640625 211.476562 578.863281 " fill-opacity="1" fill-rule="nonzero"/><path fill="#2f627c" d="M 220.628906 578.863281 C 220.628906 580.082031 219.640625 581.070312 218.417969 581.070312 C 217.199219 581.070312 216.207031 580.082031 216.207031 578.863281 C 216.207031 577.640625 217.199219 576.652344 218.417969 576.652344 C 219.640625 576.652344 220.628906 577.640625 220.628906 578.863281 " fill-opacity="1" fill-rule="nonzero"/><path fill="#4693b9" d="M 228.582031 617.539062 C 228.582031 619.964844 226.589844 621.957031 224.160156 621.957031 L 100.367188 621.957031 C 97.9375 621.957031 95.945312 619.964844 95.945312 617.539062 L 95.945312 599.851562 C 95.945312 597.421875 97.9375 595.4375 100.367188 595.4375 L 224.160156 595.4375 C 226.589844 595.4375 228.582031 597.421875 228.582031 599.851562 L 228.582031 617.539062 " fill-opacity="1" fill-rule="nonzero"/><path fill="#98d4fc" d="M 187.242188 609.136719 C 187.242188 610.113281 186.445312 610.90625 185.476562 610.90625 L 105.007812 610.90625 C 104.035156 610.90625 103.242188 610.113281 103.242188 609.136719 L 103.242188 608.253906 C 103.242188 607.277344 104.035156 606.480469 105.007812 606.480469 L 185.476562 606.480469 C 186.445312 606.480469 187.242188 607.277344 187.242188 608.253906 L 187.242188 609.136719 " fill-opacity="1" fill-rule="nonzero"/><path fill="#a2ddd0" d="M 202.3125 608.699219 C 202.3125 609.917969 201.324219 610.90625 200.105469 610.90625 C 198.882812 610.90625 197.898438 609.917969 197.898438 608.699219 C 197.898438 607.472656 198.882812 606.480469 200.105469 606.480469 C 201.324219 606.480469 202.3125 607.472656 202.3125 608.699219 " fill-opacity="1" fill-rule="nonzero"/><path fill="#98d4fc" d="M 211.476562 608.699219 C 211.476562 609.917969 210.484375 610.90625 209.265625 610.90625 C 208.042969 610.90625 207.054688 609.917969 207.054688 608.699219 C 207.054688 607.472656 208.042969 606.480469 209.265625 606.480469 C 210.484375 606.480469 211.476562 607.472656 211.476562 608.699219 " fill-opacity="1" fill-rule="nonzero"/><path fill="#ffbc33" d="M 220.628906 608.699219 C 220.628906 609.917969 219.640625 610.90625 218.417969 610.90625 C 217.199219 610.90625 216.207031 609.917969 216.207031 608.699219 C 216.207031 607.472656 217.199219 606.480469 218.417969 606.480469 C 219.640625 606.480469 220.628906 607.472656 220.628906 608.699219 " fill-opacity="1" fill-rule="nonzero"/><path fill="#4693b9" d="M 228.582031 647.375 C 228.582031 649.800781 226.589844 651.792969 224.160156 651.792969 L 100.367188 651.792969 C 97.9375 651.792969 95.945312 649.800781 95.945312 647.375 L 95.945312 629.695312 C 95.945312 627.257812 97.9375 625.273438 100.367188 625.273438 L 224.160156 625.273438 C 226.589844 625.273438 228.582031 627.257812 228.582031 629.695312 L 228.582031 647.375 " fill-opacity="1" fill-rule="nonzero"/><path fill="#98d4fc" d="M 187.242188 638.972656 C 187.242188 639.949219 186.445312 640.742188 185.476562 640.742188 L 105.007812 640.742188 C 104.035156 640.742188 103.242188 639.949219 103.242188 638.972656 L 103.242188 638.089844 C 103.242188 637.117188 104.035156 636.324219 105.007812 636.324219 L 185.476562 636.324219 C 186.445312 636.324219 187.242188 637.117188 187.242188 638.089844 L 187.242188 638.972656 " fill-opacity="1" fill-rule="nonzero"/><path fill="#2a817d" d="M 202.3125 638.527344 C 202.3125 639.753906 201.324219 640.742188 200.105469 640.742188 C 198.882812 640.742188 197.898438 639.753906 197.898438 638.527344 C 197.898438 637.3125 198.882812 636.324219 200.105469 636.324219 C 201.324219 636.324219 202.3125 637.3125 202.3125 638.527344 " fill-opacity="1" fill-rule="nonzero"/><path fill="#2f627c" d="M 211.476562 638.527344 C 211.476562 639.753906 210.484375 640.742188 209.265625 640.742188 C 208.042969 640.742188 207.054688 639.753906 207.054688 638.527344 C 207.054688 637.3125 208.042969 636.324219 209.265625 636.324219 C 210.484375 636.324219 211.476562 637.3125 211.476562 638.527344 " fill-opacity="1" fill-rule="nonzero"/><path fill="#ffbc33" d="M 220.628906 638.527344 C 220.628906 639.753906 219.640625 640.742188 218.417969 640.742188 C 217.199219 640.742188 216.207031 639.753906 216.207031 638.527344 C 216.207031 637.3125 217.199219 636.324219 218.417969 636.324219 C 219.640625 636.324219 220.628906 637.3125 220.628906 638.527344 " fill-opacity="1" fill-rule="nonzero"/><path fill="#4693b9" d="M 228.582031 677.210938 C 228.582031 679.636719 226.589844 681.628906 224.160156 681.628906 L 100.367188 681.628906 C 97.9375 681.628906 95.945312 679.636719 95.945312 677.210938 L 95.945312 659.53125 C 95.945312 657.09375 97.9375 655.105469 100.367188 655.105469 L 224.160156 655.105469 C 226.589844 655.105469 228.582031 657.09375 228.582031 659.53125 L 228.582031 677.210938 " fill-opacity="1" fill-rule="nonzero"/><path fill="#98d4fc" d="M 187.242188 668.8125 C 187.242188 669.785156 186.445312 670.574219 185.476562 670.574219 L 105.007812 670.574219 C 104.035156 670.574219 103.242188 669.785156 103.242188 668.8125 L 103.242188 667.925781 C 103.242188 666.957031 104.035156 666.152344 105.007812 666.152344 L 185.476562 666.152344 C 186.445312 666.152344 187.242188 666.957031 187.242188 667.925781 L 187.242188 668.8125 " fill-opacity="1" fill-rule="nonzero"/><path fill="#a2ddd0" d="M 202.3125 668.363281 C 202.3125 669.589844 201.324219 670.574219 200.105469 670.574219 C 198.882812 670.574219 197.898438 669.589844 197.898438 668.363281 C 197.898438 667.144531 198.882812 666.152344 200.105469 666.152344 C 201.324219 666.152344 202.3125 667.144531 202.3125 668.363281 " fill-opacity="1" fill-rule="nonzero"/><path fill="#ffbc33" d="M 211.476562 668.363281 C 211.476562 669.589844 210.484375 670.574219 209.265625 670.574219 C 208.042969 670.574219 207.054688 669.589844 207.054688 668.363281 C 207.054688 667.144531 208.042969 666.152344 209.265625 666.152344 C 210.484375 666.152344 211.476562 667.144531 211.476562 668.363281 " fill-opacity="1" fill-rule="nonzero"/><path fill="#98d4fc" d="M 220.628906 668.363281 C 220.628906 669.589844 219.640625 670.574219 218.417969 670.574219 C 217.199219 670.574219 216.207031 669.589844 216.207031 668.363281 C 216.207031 667.144531 217.199219 666.152344 218.417969 666.152344 C 219.640625 666.152344 220.628906 667.144531 220.628906 668.363281 " fill-opacity="1" fill-rule="nonzero"/><path fill="#4693b9" d="M 228.582031 707.046875 C 228.582031 709.472656 226.589844 711.464844 224.160156 711.464844 L 100.367188 711.464844 C 97.9375 711.464844 95.945312 709.472656 95.945312 707.046875 L 95.945312 689.367188 C 95.945312 686.929688 97.9375 684.941406 100.367188 684.941406 L 224.160156 684.941406 C 226.589844 684.941406 228.582031 686.929688 228.582031 689.367188 L 228.582031 707.046875 " fill-opacity="1" fill-rule="nonzero"/><path fill="#98d4fc" d="M 187.242188 698.652344 C 187.242188 699.613281 186.445312 700.414062 185.476562 700.414062 L 105.007812 700.414062 C 104.035156 700.414062 103.242188 699.613281 103.242188 698.652344 L 103.242188 697.761719 C 103.242188 696.792969 104.035156 695.988281 105.007812 695.988281 L 185.476562 695.988281 C 186.445312 695.988281 187.242188 696.792969 187.242188 697.761719 L 187.242188 698.652344 " fill-opacity="1" fill-rule="nonzero"/><path fill="#2a817d" d="M 202.3125 698.207031 C 202.3125 699.421875 201.324219 700.414062 200.105469 700.414062 C 198.882812 700.414062 197.898438 699.421875 197.898438 698.207031 C 197.898438 696.984375 198.882812 695.988281 200.105469 695.988281 C 201.324219 695.988281 202.3125 696.984375 202.3125 698.207031 " fill-opacity="1" fill-rule="nonzero"/><path fill="#98d4fc" d="M 211.476562 698.207031 C 211.476562 699.421875 210.484375 700.414062 209.265625 700.414062 C 208.042969 700.414062 207.054688 699.421875 207.054688 698.207031 C 207.054688 696.984375 208.042969 695.988281 209.265625 695.988281 C 210.484375 695.988281 211.476562 696.984375 211.476562 698.207031 " fill-opacity="1" fill-rule="nonzero"/><path fill="#a2ddd0" d="M 220.628906 698.207031 C 220.628906 699.421875 219.640625 700.414062 218.417969 700.414062 C 217.199219 700.414062 216.207031 699.421875 216.207031 698.207031 C 216.207031 696.984375 217.199219 695.988281 218.417969 695.988281 C 219.640625 695.988281 220.628906 696.984375 220.628906 698.207031 " fill-opacity="1" fill-rule="nonzero"/><path fill="#2f627c" d="M 224.160156 722.515625 C 224.160156 723.972656 222.964844 725.167969 221.507812 725.167969 L 103.023438 725.167969 C 101.5625 725.167969 100.367188 723.972656 100.367188 722.515625 L 100.367188 720.75 C 100.367188 719.289062 101.5625 718.09375 103.023438 718.09375 L 221.507812 718.09375 C 222.964844 718.09375 224.160156 719.289062 224.160156 720.75 L 224.160156 722.515625 " fill-opacity="1" fill-rule="nonzero"/><path fill="#ffd471" d="M 90.867188 162.847656 C 94.066406 175.066406 85.308594 187.105469 72.695312 187.820312 C 63.355469 188.351562 54.75 182.089844 52.382812 173.042969 C 49.183594 160.820312 57.9375 148.792969 70.554688 148.074219 C 79.890625 147.539062 88.5 153.808594 90.867188 162.847656 Z M 40.707031 172.738281 C 40.941406 175.078125 43.089844 176.714844 45.390625 176.363281 L 46.089844 176.257812 C 47.429688 176.054688 48.71875 176.769531 49.277344 178.007812 C 50.140625 179.9375 51.25 181.707031 52.539062 183.3125 C 53.441406 184.425781 53.480469 185.992188 52.589844 187.105469 L 52.332031 187.425781 C 50.878906 189.238281 51.226562 191.914062 53.136719 193.289062 C 54.933594 194.574219 57.460938 194.066406 58.839844 192.34375 L 59.359375 191.699219 C 60.179688 190.679688 61.570312 190.324219 62.789062 190.796875 C 64.78125 191.574219 66.886719 192.089844 69.058594 192.308594 C 70.417969 192.457031 71.519531 193.464844 71.738281 194.816406 L 71.8125 195.34375 C 72.175781 197.640625 74.394531 199.179688 76.699219 198.691406 C 78.859375 198.234375 80.179688 196.019531 79.839844 193.847656 L 79.789062 193.554688 C 79.578125 192.195312 80.324219 190.890625 81.582031 190.335938 C 83.265625 189.589844 84.832031 188.671875 86.273438 187.601562 C 87.386719 186.765625 88.902344 186.753906 89.984375 187.625 L 90.25 187.832031 C 92.0625 189.289062 94.738281 188.945312 96.117188 187.03125 C 97.40625 185.238281 96.898438 182.710938 95.175781 181.332031 L 94.988281 181.175781 C 93.917969 180.324219 93.59375 178.867188 94.136719 177.613281 C 95.058594 175.484375 95.675781 173.21875 95.964844 170.871094 C 96.128906 169.519531 97.140625 168.429688 98.480469 168.230469 L 99.183594 168.117188 C 101.480469 167.765625 103.035156 165.5625 102.558594 163.253906 C 102.109375 161.09375 99.902344 159.761719 97.722656 160.09375 L 97.378906 160.148438 C 96.015625 160.355469 94.699219 159.589844 94.160156 158.316406 C 93.355469 156.417969 92.328125 154.644531 91.101562 153.042969 C 90.253906 151.933594 90.242188 150.40625 91.113281 149.320312 L 91.851562 148.40625 C 93.304688 146.589844 92.960938 143.917969 91.042969 142.53125 C 89.253906 141.25 86.722656 141.757812 85.339844 143.476562 L 84.554688 144.460938 C 83.710938 145.511719 82.277344 145.851562 81.023438 145.324219 C 78.875 144.429688 76.578125 143.835938 74.199219 143.578125 C 72.839844 143.441406 71.730469 142.425781 71.519531 141.066406 L 71.394531 140.316406 C 71.03125 138.019531 68.820312 136.480469 66.515625 136.960938 C 64.355469 137.425781 63.035156 139.632812 63.371094 141.8125 L 63.460938 142.339844 C 63.671875 143.695312 62.921875 145.003906 61.664062 145.554688 C 60.617188 146.019531 59.265625 146.863281 58.0625 147.671875 C 56.246094 148.886719 53.890625 148.972656 52.007812 147.859375 L 51.664062 147.652344 C 49.664062 146.46875 47.0625 147.183594 45.964844 149.273438 C 44.945312 151.226562 45.800781 153.664062 47.707031 154.785156 L 47.761719 154.816406 C 49.070312 155.589844 49.554688 157.207031 48.972656 158.613281 C 48.074219 160.792969 47.480469 163.109375 47.242188 165.519531 C 47.105469 166.882812 46.085938 168.011719 44.71875 168.21875 L 44.375 168.269531 C 42.195312 168.601562 40.484375 170.539062 40.707031 172.738281 " fill-opacity="1" fill-rule="nonzero"/><path fill="#ffd471" d="M 68.269531 168.476562 C 67.980469 166.621094 69.246094 164.882812 71.09375 164.59375 C 72.945312 164.300781 74.6875 165.5625 74.976562 167.417969 C 75.269531 169.269531 74.003906 171.003906 72.152344 171.296875 C 70.296875 171.59375 68.5625 170.328125 68.269531 168.476562 Z M 62.433594 169.269531 C 63.230469 174.339844 67.988281 177.800781 73.054688 177 C 78.117188 176.207031 81.574219 171.449219 80.78125 166.382812 C 79.980469 161.3125 75.226562 157.859375 70.160156 158.660156 C 65.09375 159.453125 61.636719 164.210938 62.433594 169.269531 " fill-opacity="1" fill-rule="nonzero"/></svg>